[
  {
    "time": 18.065,
    "note": "G#2",
    "midi": 44,
    "duration": 0.279,
    "velocity": 127,
    "hand": "left",
    "role": "bass",
    "phrase_start": false,
    "phrase_id": 11,
    "tension": 0.5,
    "measure": 0,
    "beat": 0.0
  },
  {
    "time": 18.483,
    "note": "C3",
    "midi": 48,
    "duration": 0.139,
    "velocity": 127,
    "hand": "left",
    "role": "bass",
    "phrase_start": false,
    "phrase_id": 15,
    "tension": 0.5,
    "measure": 0,
    "beat": 0.0
  },
  {
    "time": 19.18,
    "note": "A#2",
    "midi": 46,
    "duration": 0.145,
    "velocity": 127,
    "hand": "left",
    "role": "bass",
    "phrase_start": false,
    "phrase_id": 15,
    "tension": 0.5,
    "measure": 0,
    "beat": 0.0
  },
  {
    "time": 19.325,
    "note": "C3",
    "midi": 48,
    "duration": 0.145,
    "velocity": 127,
    "hand": "left",
    "role": "bass",
    "phrase_start": false,
    "phrase_id": 15,
    "tension": 0.5,
    "measure": 0,
    "beat": 0.0
  },
  {
    "time": 22.547,
    "note": "G#2",
    "midi": 44,
    "duration": 0.29,
    "velocity": 127,
    "hand": "left",
    "role": "bass",
    "phrase_start": false,
    "phrase_id": 11,
    "tension": 0.5,
    "measure": 0,
    "beat": 0.0
  },
  {
    "time": 22.982,
    "note": "C3",
    "midi": 48,
    "duration": 0.145,
    "velocity": 127,
    "hand": "left",
    "role": "bass",
    "phrase_start": false,
    "phrase_id": 15,
    "tension": 0.5,
    "measure": 0,
    "beat": 0.0
  },
  {
    "time": 23.684,
    "note": "B2",
    "midi": 47,
    "duration": 0.279,
    "velocity": 127,
    "hand": "left",
    "role": "bass",
    "phrase_start": false,
    "phrase_id": 15,
    "tension": 0.5,
    "measure": 0,
    "beat": 0.0
  },
  {
    "time": 27.028,
    "note": "D2",
    "midi": 38,
    "duration": 0.145,
    "velocity": 127,
    "hand": "left",
    "role": "bass",
    "phrase_start": false,
    "phrase_id": 2,
    "tension": 0.5,
    "measure": 0,
    "beat": 0.0
  },
  {
    "time": 27.887,
    "note": "C#2",
    "midi": 37,
    "duration": 0.279,
    "velocity": 127,
    "hand": "left",
    "role": "bass",
    "phrase_start": false,
    "phrase_id": 1,
    "tension": 0.5,
    "measure": 0,
    "beat": 0.0
  },
  {
    "time": 29.28,
    "note": "C#2",
    "midi": 37,
    "duration": 0.279,
    "velocity": 127,
    "hand": "left",
    "role": "bass",
    "phrase_start": true,
    "phrase_id": 2,
    "tension": 0.5,
    "measure": 0,
    "beat": 0.0
  },
  {
    "time": 29.559,
    "note": "E2",
    "midi": 40,
    "duration": 0.139,
    "velocity": 123,
    "hand": "left",
    "role": "bass",
    "phrase_start": false,
    "phrase_id": 2,
    "tension": 0.5,
    "measure": 0,
    "beat": 0.0
  },
  {
    "time": 30.116,
    "note": "C#2",
    "midi": 37,
    "duration": 0.279,
    "velocity": 127,
    "hand": "left",
    "role": "bass",
    "phrase_start": false,
    "phrase_id": 2,
    "tension": 0.5,
    "measure": 0,
    "beat": 0.0
  },
  {
    "time": 31.254,
    "note": "D2",
    "midi": 38,
    "duration": 0.557,
    "velocity": 127,
    "hand": "left",
    "role": "bass",
    "phrase_start": false,
    "phrase_id": 2,
    "tension": 0.5,
    "measure": 0,
    "beat": 0.0
  },
  {
    "time": 32.229,
    "note": "E2",
    "midi": 40,
    "duration": 0.139,
    "velocity": 124,
    "hand": "left",
    "role": "bass",
    "phrase_start": false,
    "phrase_id": 2,
    "tension": 0.5,
    "measure": 0,
    "beat": 0.0
  },
  {
    "time": 32.369,
    "note": "C#2",
    "midi": 37,
    "duration": 0.279,
    "velocity": 127,
    "hand": "left",
    "role": "bass",
    "phrase_start": false,
    "phrase_id": 2,
    "tension": 0.5,
    "measure": 0,
    "beat": 0.0
  },
  {
    "time": 33.762,
    "note": "D2",
    "midi": 38,
    "duration": 0.29,
    "velocity": 127,
    "hand": "left",
    "role": "bass",
    "phrase_start": false,
    "phrase_id": 2,
    "tension": 0.5,
    "measure": 0,
    "beat": 0.0
  },
  {
    "time": 34.621,
    "note": "D2",
    "midi": 38,
    "duration": 0.139,
    "velocity": 127,
    "hand": "left",
    "role": "bass",
    "phrase_start": false,
    "phrase_id": 2,
    "tension": 0.5,
    "measure": 0,
    "beat": 0.0
  },
  {
    "time": 35.736,
    "note": "C#2",
    "midi": 37,
    "duration": 0.139,
    "velocity": 127,
    "hand": "left",
    "role": "bass",
    "phrase_start": false,
    "phrase_id": 2,
    "tension": 0.5,
    "measure": 0,
    "beat": 0.0
  },
  {
    "time": 36.014,
    "note": "C2",
    "midi": 36,
    "duration": 0.139,
    "velocity": 127,
    "hand": "left",
    "role": "bass",
    "phrase_start": true,
    "phrase_id": 1,
    "tension": 0.5,
    "measure": 0,
    "beat": 0.0
  },
  {
    "time": 36.717,
    "note": "G#3",
    "midi": 56,
    "duration": 0.145,
    "velocity": 127,
    "hand": "left",
    "role": "bass",
    "phrase_start": false,
    "phrase_id": 16,
    "tension": 0.5,
    "measure": 0,
    "beat": 0.0
  },
  {
    "time": 36.862,
    "note": "B3",
    "midi": 59,
    "duration": 0.145,
    "velocity": 127,
    "hand": "left",
    "role": "bass",
    "phrase_start": false,
    "phrase_id": 18,
    "tension": 0.5,
    "measure": 0,
    "beat": 0.0
  },
  {
    "time": 37.152,
    "note": "G#3",
    "midi": 56,
    "duration": 0.418,
    "velocity": 127,
    "hand": "left",
    "role": "bass",
    "phrase_start": false,
    "phrase_id": 16,
    "tension": 0.5,
    "measure": 0,
    "beat": 0.0
  },
  {
    "time": 37.988,
    "note": "F#3",
    "midi": 54,
    "duration": 0.139,
    "velocity": 127,
    "hand": "left",
    "role": "bass",
    "phrase_start": false,
    "phrase_id": 15,
    "tension": 0.5,
    "measure": 0,
    "beat": 0.0
  },
  {
    "time": 38.127,
    "note": "E3",
    "midi": 52,
    "duration": 0.139,
    "velocity": 127,
    "hand": "left",
    "role": "bass",
    "phrase_start": false,
    "phrase_id": 15,
    "tension": 0.5,
    "measure": 0,
    "beat": 0.0
  },
  {
    "time": 38.266,
    "note": "A2",
    "midi": 45,
    "duration": 0.29,
    "velocity": 127,
    "hand": "left",
    "role": "bass",
    "phrase_start": false,
    "phrase_id": 11,
    "tension": 0.5,
    "measure": 0,
    "beat": 0.0
  },
  {
    "time": 38.557,
    "note": "F#3",
    "midi": 54,
    "duration": 1.126,
    "velocity": 127,
    "hand": "left",
    "role": "bass",
    "phrase_start": false,
    "phrase_id": 15,
    "tension": 0.5,
    "measure": 0,
    "beat": 0.0
  },
  {
    "time": 39.962,
    "note": "G#3",
    "midi": 56,
    "duration": 0.279,
    "velocity": 127,
    "hand": "left",
    "role": "bass",
    "phrase_start": true,
    "phrase_id": 17,
    "tension": 0.5,
    "measure": 0,
    "beat": 0.0
  },
  {
    "time": 40.24,
    "note": "F#3",
    "midi": 54,
    "duration": 0.139,
    "velocity": 127,
    "hand": "left",
    "role": "bass",
    "phrase_start": true,
    "phrase_id": 16,
    "tension": 0.5,
    "measure": 0,
    "beat": 0.0
  },
  {
    "time": 40.38,
    "note": "D#2",
    "midi": 39,
    "duration": 0.697,
    "velocity": 127,
    "hand": "left",
    "role": "bass",
    "phrase_start": false,
    "phrase_id": 2,
    "tension": 0.5,
    "measure": 0,
    "beat": 0.0
  },
  {
    "time": 41.076,
    "note": "F2",
    "midi": 41,
    "duration": 0.29,
    "velocity": 127,
    "hand": "left",
    "role": "bass",
    "phrase_start": false,
    "phrase_id": 6,
    "tension": 0.5,
    "measure": 0,
    "beat": 0.0
  },
  {
    "time": 41.366,
    "note": "E2",
    "midi": 40,
    "duration": 0.145,
    "velocity": 127,
    "hand": "left",
    "role": "bass",
    "phrase_start": false,
    "phrase_id": 2,
    "tension": 0.5,
    "measure": 0,
    "beat": 0.0
  },
  {
    "time": 42.26,
    "note": "G#3",
    "midi": 56,
    "duration": 0.134,
    "velocity": 127,
    "hand": "left",
    "role": "bass",
    "phrase_start": false,
    "phrase_id": 17,
    "tension": 0.5,
    "measure": 0,
    "beat": 0.0
  },
  {
    "time": 42.394,
    "note": "F#3",
    "midi": 54,
    "duration": 0.134,
    "velocity": 127,
    "hand": "left",
    "role": "bass",
    "phrase_start": false,
    "phrase_id": 16,
    "tension": 0.5,
    "measure": 0,
    "beat": 0.0
  },
  {
    "time": 42.527,
    "note": "E3",
    "midi": 52,
    "duration": 0.267,
    "velocity": 127,
    "hand": "left",
    "role": "bass",
    "phrase_start": false,
    "phrase_id": 15,
    "tension": 0.5,
    "measure": 0,
    "beat": 0.0
  },
  {
    "time": 43.073,
    "note": "F#3",
    "midi": 54,
    "duration": 0.697,
    "velocity": 127,
    "hand": "left",
    "role": "bass",
    "phrase_start": false,
    "phrase_id": 16,
    "tension": 0.5,
    "measure": 0,
    "beat": 0.0
  },
  {
    "time": 43.909,
    "note": "F3",
    "midi": 53,
    "duration": 0.267,
    "velocity": 127,
    "hand": "left",
    "role": "bass",
    "phrase_start": false,
    "phrase_id": 15,
    "tension": 0.5,
    "measure": 0,
    "beat": 0.0
  },
  {
    "time": 44.176,
    "note": "G3",
    "midi": 55,
    "duration": 0.134,
    "velocity": 127,
    "hand": "left",
    "role": "bass",
    "phrase_start": false,
    "phrase_id": 16,
    "tension": 0.5,
    "measure": 0,
    "beat": 0.0
  },
  {
    "time": 44.443,
    "note": "G#3",
    "midi": 56,
    "duration": 0.401,
    "velocity": 127,
    "hand": "left",
    "role": "bass",
    "phrase_start": false,
    "phrase_id": 17,
    "tension": 0.5,
    "measure": 0,
    "beat": 0.0
  },
  {
    "time": 44.844,
    "note": "F#3",
    "midi": 54,
    "duration": 0.145,
    "velocity": 127,
    "hand": "left",
    "role": "bass",
    "phrase_start": false,
    "phrase_id": 16,
    "tension": 0.5,
    "measure": 0,
    "beat": 0.0
  },
  {
    "time": 44.977,
    "note": "D#2",
    "midi": 39,
    "duration": 0.72,
    "velocity": 127,
    "hand": "left",
    "role": "bass",
    "phrase_start": false,
    "phrase_id": 2,
    "tension": 0.5,
    "measure": 0,
    "beat": 0.0
  },
  {
    "time": 46.115,
    "note": "G#3",
    "midi": 56,
    "duration": 0.418,
    "velocity": 127,
    "hand": "left",
    "role": "bass",
    "phrase_start": false,
    "phrase_id": 17,
    "tension": 0.5,
    "measure": 0,
    "beat": 0.0
  },
  {
    "time": 47.09,
    "note": "E3",
    "midi": 52,
    "duration": 0.139,
    "velocity": 127,
    "hand": "left",
    "role": "bass",
    "phrase_start": false,
    "phrase_id": 15,
    "tension": 0.5,
    "measure": 0,
    "beat": 0.0
  },
  {
    "time": 47.229,
    "note": "C#2",
    "midi": 37,
    "duration": 0.139,
    "velocity": 127,
    "hand": "left",
    "role": "bass",
    "phrase_start": false,
    "phrase_id": 2,
    "tension": 0.5,
    "measure": 0,
    "beat": 0.0
  },
  {
    "time": 47.508,
    "note": "F3",
    "midi": 53,
    "duration": 0.279,
    "velocity": 127,
    "hand": "left",
    "role": "bass",
    "phrase_start": false,
    "phrase_id": 15,
    "tension": 0.5,
    "measure": 0,
    "beat": 0.0
  },
  {
    "time": 47.787,
    "note": "F#3",
    "midi": 54,
    "duration": 0.279,
    "velocity": 127,
    "hand": "left",
    "role": "bass",
    "phrase_start": false,
    "phrase_id": 16,
    "tension": 0.5,
    "measure": 0,
    "beat": 0.0
  },
  {
    "time": 48.065,
    "note": "D#2",
    "midi": 39,
    "duration": 0.139,
    "velocity": 127,
    "hand": "left",
    "role": "bass",
    "phrase_start": false,
    "phrase_id": 2,
    "tension": 0.5,
    "measure": 0,
    "beat": 0.0
  },
  {
    "time": 48.205,
    "note": "F#3",
    "midi": 54,
    "duration": 0.139,
    "velocity": 127,
    "hand": "left",
    "role": "bass",
    "phrase_start": false,
    "phrase_id": 16,
    "tension": 0.5,
    "measure": 0,
    "beat": 0.0
  },
  {
    "time": 48.483,
    "note": "F3",
    "midi": 53,
    "duration": 0.139,
    "velocity": 127,
    "hand": "left",
    "role": "bass",
    "phrase_start": false,
    "phrase_id": 15,
    "tension": 0.5,
    "measure": 0,
    "beat": 0.0
  },
  {
    "time": 48.901,
    "note": "G#3",
    "midi": 56,
    "duration": 0.435,
    "velocity": 127,
    "hand": "left",
    "role": "bass",
    "phrase_start": false,
    "phrase_id": 17,
    "tension": 0.5,
    "measure": 0,
    "beat": 0.0
  },
  {
    "time": 49.482,
    "note": "C#2",
    "midi": 37,
    "duration": 0.139,
    "velocity": 127,
    "hand": "left",
    "role": "bass",
    "phrase_start": false,
    "phrase_id": 2,
    "tension": 0.5,
    "measure": 0,
    "beat": 0.0
  },
  {
    "time": 49.621,
    "note": "E2",
    "midi": 40,
    "duration": 0.418,
    "velocity": 127,
    "hand": "left",
    "role": "bass",
    "phrase_start": false,
    "phrase_id": 2,
    "tension": 0.5,
    "measure": 0,
    "beat": 0.0
  },
  {
    "time": 50.318,
    "note": "D#2",
    "midi": 39,
    "duration": 0.145,
    "velocity": 127,
    "hand": "left",
    "role": "bass",
    "phrase_start": false,
    "phrase_id": 2,
    "tension": 0.5,
    "measure": 0,
    "beat": 0.0
  },
  {
    "time": 50.457,
    "note": "E2",
    "midi": 40,
    "duration": 0.418,
    "velocity": 127,
    "hand": "left",
    "role": "bass",
    "phrase_start": false,
    "phrase_id": 2,
    "tension": 0.5,
    "measure": 0,
    "beat": 0.0
  },
  {
    "time": 50.875,
    "note": "G#2",
    "midi": 44,
    "duration": 0.139,
    "velocity": 127,
    "hand": "left",
    "role": "bass",
    "phrase_start": false,
    "phrase_id": 11,
    "tension": 0.5,
    "measure": 0,
    "beat": 0.0
  },
  {
    "time": 51.154,
    "note": "G#3",
    "midi": 56,
    "duration": 0.279,
    "velocity": 127,
    "hand": "left",
    "role": "bass",
    "phrase_start": false,
    "phrase_id": 17,
    "tension": 0.5,
    "measure": 0,
    "beat": 0.0
  },
  {
    "time": 51.432,
    "note": "D2",
    "midi": 38,
    "duration": 0.139,
    "velocity": 127,
    "hand": "left",
    "role": "bass",
    "phrase_start": false,
    "phrase_id": 2,
    "tension": 0.5,
    "measure": 0,
    "beat": 0.0
  },
  {
    "time": 51.711,
    "note": "C#2",
    "midi": 37,
    "duration": 0.145,
    "velocity": 127,
    "hand": "left",
    "role": "bass",
    "phrase_start": false,
    "phrase_id": 2,
    "tension": 0.5,
    "measure": 0,
    "beat": 0.0
  },
  {
    "time": 51.856,
    "note": "A2",
    "midi": 45,
    "duration": 0.145,
    "velocity": 127,
    "hand": "left",
    "role": "bass",
    "phrase_start": false,
    "phrase_id": 11,
    "tension": 0.5,
    "measure": 0,
    "beat": 0.0
  },
  {
    "time": 52.001,
    "note": "F#3",
    "midi": 54,
    "duration": 0.569,
    "velocity": 127,
    "hand": "left",
    "role": "bass",
    "phrase_start": false,
    "phrase_id": 16,
    "tension": 0.5,
    "measure": 0,
    "beat": 0.0
  },
  {
    "time": 52.57,
    "note": "D#2",
    "midi": 39,
    "duration": 0.139,
    "velocity": 127,
    "hand": "left",
    "role": "bass",
    "phrase_start": false,
    "phrase_id": 2,
    "tension": 0.5,
    "measure": 0,
    "beat": 0.0
  },
  {
    "time": 52.988,
    "note": "F#3",
    "midi": 54,
    "duration": 0.139,
    "velocity": 127,
    "hand": "left",
    "role": "bass",
    "phrase_start": false,
    "phrase_id": 16,
    "tension": 0.5,
    "measure": 0,
    "beat": 0.0
  },
  {
    "time": 53.406,
    "note": "G#3",
    "midi": 56,
    "duration": 0.279,
    "velocity": 127,
    "hand": "left",
    "role": "bass",
    "phrase_start": false,
    "phrase_id": 17,
    "tension": 0.5,
    "measure": 0,
    "beat": 0.0
  },
  {
    "time": 53.963,
    "note": "E2",
    "midi": 40,
    "duration": 0.557,
    "velocity": 127,
    "hand": "right",
    "role": "melody",
    "phrase_start": false,
    "phrase_id": 2,
    "tension": 0.5,
    "measure": 0,
    "beat": 0.0
  },
  {
    "time": 53.963,
    "note": "C#2",
    "midi": 37,
    "duration": 0.139,
    "velocity": 127,
    "hand": "left",
    "role": "bass",
    "phrase_start": false,
    "phrase_id": 2,
    "tension": 0.5,
    "measure": 0,
    "beat": 0.0
  },
  {
    "time": 54.799,
    "note": "C#2",
    "midi": 37,
    "duration": 0.139,
    "velocity": 127,
    "hand": "left",
    "role": "bass",
    "phrase_start": false,
    "phrase_id": 2,
    "tension": 0.5,
    "measure": 0,
    "beat": 0.0
  },
  {
    "time": 54.938,
    "note": "E2",
    "midi": 40,
    "duration": 0.998,
    "velocity": 127,
    "hand": "left",
    "role": "bass",
    "phrase_start": false,
    "phrase_id": 2,
    "tension": 0.5,
    "measure": 0,
    "beat": 0.0
  },
  {
    "time": 55.937,
    "note": "C#2",
    "midi": 37,
    "duration": 0.418,
    "velocity": 127,
    "hand": "left",
    "role": "bass",
    "phrase_start": false,
    "phrase_id": 2,
    "tension": 0.5,
    "measure": 0,
    "beat": 0.0
  },
  {
    "time": 56.494,
    "note": "C#3",
    "midi": 49,
    "duration": 0.139,
    "velocity": 127,
    "hand": "left",
    "role": "bass",
    "phrase_start": false,
    "phrase_id": 15,
    "tension": 0.5,
    "measure": 0,
    "beat": 0.0
  },
  {
    "time": 56.773,
    "note": "F#2",
    "midi": 42,
    "duration": 0.139,
    "velocity": 127,
    "hand": "left",
    "role": "bass",
    "phrase_start": false,
    "phrase_id": 7,
    "tension": 0.5,
    "measure": 0,
    "beat": 0.0
  },
  {
    "time": 57.051,
    "note": "C#2",
    "midi": 37,
    "duration": 0.139,
    "velocity": 127,
    "hand": "left",
    "role": "bass",
    "phrase_start": false,
    "phrase_id": 2,
    "tension": 0.5,
    "measure": 0,
    "beat": 0.0
  },
  {
    "time": 57.469,
    "note": "C#4",
    "midi": 61,
    "duration": 0.279,
    "velocity": 127,
    "hand": "left",
    "role": "bass",
    "phrase_start": false,
    "phrase_id": 18,
    "tension": 0.5,
    "measure": 0,
    "beat": 0.0
  },
  {
    "time": 57.887,
    "note": "D4",
    "midi": 62,
    "duration": 0.279,
    "velocity": 127,
    "hand": "left",
    "role": "bass",
    "phrase_start": false,
    "phrase_id": 18,
    "tension": 0.5,
    "measure": 0,
    "beat": 0.0
  },
  {
    "time": 58.445,
    "note": "C2",
    "midi": 36,
    "duration": 0.279,
    "velocity": 127,
    "hand": "left",
    "role": "bass",
    "phrase_start": false,
    "phrase_id": 1,
    "tension": 0.5,
    "measure": 0,
    "beat": 0.0
  },
  {
    "time": 58.723,
    "note": "D2",
    "midi": 38,
    "duration": 0.279,
    "velocity": 127,
    "hand": "left",
    "role": "bass",
    "phrase_start": false,
    "phrase_id": 2,
    "tension": 0.5,
    "measure": 0,
    "beat": 0.0
  },
  {
    "time": 59.292,
    "note": "D#2",
    "midi": 39,
    "duration": 0.145,
    "velocity": 127,
    "hand": "left",
    "role": "bass",
    "phrase_start": false,
    "phrase_id": 2,
    "tension": 0.5,
    "measure": 0,
    "beat": 0.0
  },
  {
    "time": 59.437,
    "note": "C#2",
    "midi": 37,
    "duration": 1.399,
    "velocity": 127,
    "hand": "left",
    "role": "bass",
    "phrase_start": false,
    "phrase_id": 2,
    "tension": 0.5,
    "measure": 0,
    "beat": 0.0
  },
  {
    "time": 60.836,
    "note": "A2",
    "midi": 45,
    "duration": 0.418,
    "velocity": 127,
    "hand": "left",
    "role": "bass",
    "phrase_start": false,
    "phrase_id": 11,
    "tension": 0.5,
    "measure": 0,
    "beat": 0.0
  },
  {
    "time": 61.254,
    "note": "F2",
    "midi": 41,
    "duration": 0.139,
    "velocity": 127,
    "hand": "left",
    "role": "bass",
    "phrase_start": true,
    "phrase_id": 7,
    "tension": 0.5,
    "measure": 0,
    "beat": 0.0
  },
  {
    "time": 61.394,
    "note": "C#4",
    "midi": 61,
    "duration": 0.145,
    "velocity": 127,
    "hand": "left",
    "role": "bass",
    "phrase_start": false,
    "phrase_id": 18,
    "tension": 0.5,
    "measure": 0,
    "beat": 0.0
  },
  {
    "time": 61.533,
    "note": "D2",
    "midi": 38,
    "duration": 0.139,
    "velocity": 127,
    "hand": "left",
    "role": "bass",
    "phrase_start": false,
    "phrase_id": 2,
    "tension": 0.5,
    "measure": 0,
    "beat": 0.0
  },
  {
    "time": 61.672,
    "note": "A2",
    "midi": 45,
    "duration": 0.557,
    "velocity": 127,
    "hand": "left",
    "role": "bass",
    "phrase_start": false,
    "phrase_id": 11,
    "tension": 0.5,
    "measure": 0,
    "beat": 0.0
  },
  {
    "time": 62.508,
    "note": "A2",
    "midi": 45,
    "duration": 0.279,
    "velocity": 127,
    "hand": "left",
    "role": "bass",
    "phrase_start": false,
    "phrase_id": 11,
    "tension": 0.5,
    "measure": 0,
    "beat": 0.0
  },
  {
    "time": 62.926,
    "note": "D#2",
    "midi": 39,
    "duration": 0.145,
    "velocity": 127,
    "hand": "left",
    "role": "bass",
    "phrase_start": false,
    "phrase_id": 2,
    "tension": 0.5,
    "measure": 0,
    "beat": 0.0
  },
  {
    "time": 63.071,
    "note": "E2",
    "midi": 40,
    "duration": 0.435,
    "velocity": 127,
    "hand": "left",
    "role": "bass",
    "phrase_start": false,
    "phrase_id": 2,
    "tension": 0.5,
    "measure": 0,
    "beat": 0.0
  },
  {
    "time": 63.507,
    "note": "G#2",
    "midi": 44,
    "duration": 0.139,
    "velocity": 127,
    "hand": "left",
    "role": "bass",
    "phrase_start": false,
    "phrase_id": 11,
    "tension": 0.5,
    "measure": 0,
    "beat": 0.0
  },
  {
    "time": 63.785,
    "note": "D#2",
    "midi": 39,
    "duration": 0.139,
    "velocity": 127,
    "hand": "left",
    "role": "bass",
    "phrase_start": false,
    "phrase_id": 2,
    "tension": 0.5,
    "measure": 0,
    "beat": 0.0
  },
  {
    "time": 63.925,
    "note": "E2",
    "midi": 40,
    "duration": 0.975,
    "velocity": 127,
    "hand": "left",
    "role": "bass",
    "phrase_start": false,
    "phrase_id": 2,
    "tension": 0.5,
    "measure": 0,
    "beat": 0.0
  },
  {
    "time": 64.9,
    "note": "D2",
    "midi": 38,
    "duration": 0.418,
    "velocity": 127,
    "hand": "left",
    "role": "bass",
    "phrase_start": false,
    "phrase_id": 2,
    "tension": 0.5,
    "measure": 0,
    "beat": 0.0
  },
  {
    "time": 65.318,
    "note": "F#2",
    "midi": 42,
    "duration": 0.418,
    "velocity": 127,
    "hand": "left",
    "role": "bass",
    "phrase_start": false,
    "phrase_id": 7,
    "tension": 0.5,
    "measure": 0,
    "beat": 0.0
  },
  {
    "time": 66.014,
    "note": "D2",
    "midi": 38,
    "duration": 0.139,
    "velocity": 127,
    "hand": "left",
    "role": "bass",
    "phrase_start": false,
    "phrase_id": 2,
    "tension": 0.5,
    "measure": 0,
    "beat": 0.0
  },
  {
    "time": 66.154,
    "note": "F#2",
    "midi": 42,
    "duration": 0.697,
    "velocity": 127,
    "hand": "left",
    "role": "bass",
    "phrase_start": false,
    "phrase_id": 7,
    "tension": 0.5,
    "measure": 0,
    "beat": 0.0
  },
  {
    "time": 66.995,
    "note": "A3",
    "midi": 57,
    "duration": 0.145,
    "velocity": 127,
    "hand": "left",
    "role": "bass",
    "phrase_start": false,
    "phrase_id": 17,
    "tension": 0.5,
    "measure": 0,
    "beat": 0.0
  },
  {
    "time": 67.14,
    "note": "G#3",
    "midi": 56,
    "duration": 0.29,
    "velocity": 127,
    "hand": "left",
    "role": "bass",
    "phrase_start": false,
    "phrase_id": 17,
    "tension": 0.5,
    "measure": 0,
    "beat": 0.0
  },
  {
    "time": 67.431,
    "note": "C2",
    "midi": 36,
    "duration": 0.836,
    "velocity": 127,
    "hand": "left",
    "role": "bass",
    "phrase_start": false,
    "phrase_id": 1,
    "tension": 0.5,
    "measure": 0,
    "beat": 0.0
  },
  {
    "time": 68.406,
    "note": "A2",
    "midi": 45,
    "duration": 0.975,
    "velocity": 127,
    "hand": "left",
    "role": "bass",
    "phrase_start": true,
    "phrase_id": 12,
    "tension": 0.5,
    "measure": 0,
    "beat": 0.0
  },
  {
    "time": 69.66,
    "note": "D2",
    "midi": 38,
    "duration": 0.139,
    "velocity": 127,
    "hand": "left",
    "role": "bass",
    "phrase_start": false,
    "phrase_id": 2,
    "tension": 0.5,
    "measure": 0,
    "beat": 0.0
  },
  {
    "time": 69.939,
    "note": "F#3",
    "midi": 54,
    "duration": 0.569,
    "velocity": 127,
    "hand": "left",
    "role": "bass",
    "phrase_start": false,
    "phrase_id": 16,
    "tension": 0.5,
    "measure": 0,
    "beat": 0.0
  },
  {
    "time": 70.507,
    "note": "C#2",
    "midi": 37,
    "duration": 0.145,
    "velocity": 127,
    "hand": "left",
    "role": "bass",
    "phrase_start": false,
    "phrase_id": 2,
    "tension": 0.5,
    "measure": 0,
    "beat": 0.0
  },
  {
    "time": 70.653,
    "note": "F#3",
    "midi": 54,
    "duration": 0.563,
    "velocity": 127,
    "hand": "left",
    "role": "bass",
    "phrase_start": false,
    "phrase_id": 16,
    "tension": 0.5,
    "measure": 0,
    "beat": 0.0
  },
  {
    "time": 71.355,
    "note": "G#3",
    "midi": 56,
    "duration": 0.279,
    "velocity": 127,
    "hand": "left",
    "role": "bass",
    "phrase_start": false,
    "phrase_id": 17,
    "tension": 0.5,
    "measure": 0,
    "beat": 0.0
  },
  {
    "time": 71.634,
    "note": "F#3",
    "midi": 54,
    "duration": 0.139,
    "velocity": 127,
    "hand": "left",
    "role": "bass",
    "phrase_start": false,
    "phrase_id": 16,
    "tension": 0.5,
    "measure": 0,
    "beat": 0.0
  },
  {
    "time": 71.912,
    "note": "C#2",
    "midi": 37,
    "duration": 0.139,
    "velocity": 127,
    "hand": "left",
    "role": "bass",
    "phrase_start": false,
    "phrase_id": 2,
    "tension": 0.5,
    "measure": 0,
    "beat": 0.0
  },
  {
    "time": 72.052,
    "note": "E2",
    "midi": 40,
    "duration": 0.418,
    "velocity": 127,
    "hand": "left",
    "role": "bass",
    "phrase_start": false,
    "phrase_id": 2,
    "tension": 0.5,
    "measure": 0,
    "beat": 0.0
  },
  {
    "time": 72.748,
    "note": "D#2",
    "midi": 39,
    "duration": 0.139,
    "velocity": 127,
    "hand": "left",
    "role": "bass",
    "phrase_start": false,
    "phrase_id": 2,
    "tension": 0.5,
    "measure": 0,
    "beat": 0.0
  },
  {
    "time": 72.887,
    "note": "E2",
    "midi": 40,
    "duration": 0.418,
    "velocity": 127,
    "hand": "left",
    "role": "bass",
    "phrase_start": false,
    "phrase_id": 2,
    "tension": 0.5,
    "measure": 0,
    "beat": 0.0
  },
  {
    "time": 73.445,
    "note": "E2",
    "midi": 40,
    "duration": 0.139,
    "velocity": 127,
    "hand": "left",
    "role": "bass",
    "phrase_start": false,
    "phrase_id": 2,
    "tension": 0.5,
    "measure": 0,
    "beat": 0.0
  },
  {
    "time": 73.723,
    "note": "G#3",
    "midi": 56,
    "duration": 0.139,
    "velocity": 127,
    "hand": "left",
    "role": "bass",
    "phrase_start": false,
    "phrase_id": 17,
    "tension": 0.5,
    "measure": 0,
    "beat": 0.0
  },
  {
    "time": 73.863,
    "note": "D#2",
    "midi": 39,
    "duration": 0.139,
    "velocity": 127,
    "hand": "left",
    "role": "bass",
    "phrase_start": false,
    "phrase_id": 2,
    "tension": 0.5,
    "measure": 0,
    "beat": 0.0
  },
  {
    "time": 74.141,
    "note": "D#2",
    "midi": 39,
    "duration": 0.145,
    "velocity": 127,
    "hand": "left",
    "role": "bass",
    "phrase_start": false,
    "phrase_id": 2,
    "tension": 0.5,
    "measure": 0,
    "beat": 0.0
  },
  {
    "time": 74.286,
    "note": "A2",
    "midi": 45,
    "duration": 0.145,
    "velocity": 127,
    "hand": "left",
    "role": "bass",
    "phrase_start": false,
    "phrase_id": 12,
    "tension": 0.5,
    "measure": 0,
    "beat": 0.0
  },
  {
    "time": 74.432,
    "note": "F#3",
    "midi": 54,
    "duration": 0.569,
    "velocity": 127,
    "hand": "left",
    "role": "bass",
    "phrase_start": false,
    "phrase_id": 16,
    "tension": 0.5,
    "measure": 0,
    "beat": 0.0
  },
  {
    "time": 75.14,
    "note": "E3",
    "midi": 52,
    "duration": 0.279,
    "velocity": 127,
    "hand": "left",
    "role": "bass",
    "phrase_start": false,
    "phrase_id": 15,
    "tension": 0.5,
    "measure": 0,
    "beat": 0.0
  },
  {
    "time": 75.418,
    "note": "F#3",
    "midi": 54,
    "duration": 0.279,
    "velocity": 127,
    "hand": "left",
    "role": "bass",
    "phrase_start": false,
    "phrase_id": 16,
    "tension": 0.5,
    "measure": 0,
    "beat": 0.0
  },
  {
    "time": 75.836,
    "note": "G#3",
    "midi": 56,
    "duration": 0.418,
    "velocity": 127,
    "hand": "left",
    "role": "bass",
    "phrase_start": false,
    "phrase_id": 17,
    "tension": 0.5,
    "measure": 0,
    "beat": 0.0
  },
  {
    "time": 76.254,
    "note": "F#3",
    "midi": 54,
    "duration": 0.145,
    "velocity": 127,
    "hand": "left",
    "role": "bass",
    "phrase_start": false,
    "phrase_id": 16,
    "tension": 0.5,
    "measure": 0,
    "beat": 0.0
  },
  {
    "time": 76.394,
    "note": "C#2",
    "midi": 37,
    "duration": 0.139,
    "velocity": 127,
    "hand": "left",
    "role": "bass",
    "phrase_start": false,
    "phrase_id": 2,
    "tension": 0.5,
    "measure": 0,
    "beat": 0.0
  },
  {
    "time": 76.533,
    "note": "E2",
    "midi": 40,
    "duration": 0.418,
    "velocity": 127,
    "hand": "left",
    "role": "bass",
    "phrase_start": true,
    "phrase_id": 3,
    "tension": 0.5,
    "measure": 0,
    "beat": 0.0
  },
  {
    "time": 76.951,
    "note": "G#2",
    "midi": 44,
    "duration": 0.139,
    "velocity": 127,
    "hand": "left",
    "role": "bass",
    "phrase_start": false,
    "phrase_id": 11,
    "tension": 0.5,
    "measure": 0,
    "beat": 0.0
  },
  {
    "time": 77.23,
    "note": "D#2",
    "midi": 39,
    "duration": 0.139,
    "velocity": 127,
    "hand": "left",
    "role": "bass",
    "phrase_start": false,
    "phrase_id": 2,
    "tension": 0.5,
    "measure": 0,
    "beat": 0.0
  },
  {
    "time": 77.369,
    "note": "F2",
    "midi": 41,
    "duration": 0.72,
    "velocity": 127,
    "hand": "left",
    "role": "bass",
    "phrase_start": false,
    "phrase_id": 7,
    "tension": 0.5,
    "measure": 0,
    "beat": 0.0
  },
  {
    "time": 78.089,
    "note": "B3",
    "midi": 59,
    "duration": 0.279,
    "velocity": 127,
    "hand": "left",
    "role": "bass",
    "phrase_start": false,
    "phrase_id": 18,
    "tension": 0.5,
    "measure": 0,
    "beat": 0.0
  },
  {
    "time": 78.367,
    "note": "C#2",
    "midi": 37,
    "duration": 0.139,
    "velocity": 127,
    "hand": "left",
    "role": "bass",
    "phrase_start": false,
    "phrase_id": 2,
    "tension": 0.5,
    "measure": 0,
    "beat": 0.0
  },
  {
    "time": 78.507,
    "note": "D#2",
    "midi": 39,
    "duration": 0.279,
    "velocity": 127,
    "hand": "left",
    "role": "bass",
    "phrase_start": false,
    "phrase_id": 2,
    "tension": 0.5,
    "measure": 0,
    "beat": 0.0
  },
  {
    "time": 78.785,
    "note": "A2",
    "midi": 45,
    "duration": 0.279,
    "velocity": 127,
    "hand": "left",
    "role": "bass",
    "phrase_start": false,
    "phrase_id": 12,
    "tension": 0.5,
    "measure": 0,
    "beat": 0.0
  },
  {
    "time": 79.203,
    "note": "G2",
    "midi": 43,
    "duration": 0.139,
    "velocity": 127,
    "hand": "left",
    "role": "bass",
    "phrase_start": false,
    "phrase_id": 10,
    "tension": 0.5,
    "measure": 0,
    "beat": 0.0
  },
  {
    "time": 79.621,
    "note": "G2",
    "midi": 43,
    "duration": 0.139,
    "velocity": 127,
    "hand": "left",
    "role": "bass",
    "phrase_start": false,
    "phrase_id": 10,
    "tension": 0.5,
    "measure": 0,
    "beat": 0.0
  },
  {
    "time": 79.761,
    "note": "C#4",
    "midi": 61,
    "duration": 0.418,
    "velocity": 127,
    "hand": "left",
    "role": "bass",
    "phrase_start": false,
    "phrase_id": 18,
    "tension": 0.5,
    "measure": 0,
    "beat": 0.0
  },
  {
    "time": 80.179,
    "note": "G2",
    "midi": 43,
    "duration": 0.139,
    "velocity": 127,
    "hand": "left",
    "role": "bass",
    "phrase_start": false,
    "phrase_id": 10,
    "tension": 0.5,
    "measure": 0,
    "beat": 0.0
  },
  {
    "time": 80.318,
    "note": "D4",
    "midi": 62,
    "duration": 0.279,
    "velocity": 127,
    "hand": "left",
    "role": "bass",
    "phrase_start": false,
    "phrase_id": 18,
    "tension": 0.5,
    "measure": 0,
    "beat": 0.0
  },
  {
    "time": 80.596,
    "note": "F#2",
    "midi": 42,
    "duration": 0.279,
    "velocity": 127,
    "hand": "left",
    "role": "bass",
    "phrase_start": false,
    "phrase_id": 7,
    "tension": 0.5,
    "measure": 0,
    "beat": 0.0
  },
  {
    "time": 81.014,
    "note": "C#2",
    "midi": 37,
    "duration": 0.418,
    "velocity": 127,
    "hand": "left",
    "role": "bass",
    "phrase_start": false,
    "phrase_id": 2,
    "tension": 0.5,
    "measure": 0,
    "beat": 0.0
  },
  {
    "time": 81.723,
    "note": "C#2",
    "midi": 37,
    "duration": 1.265,
    "velocity": 127,
    "hand": "left",
    "role": "bass",
    "phrase_start": false,
    "phrase_id": 2,
    "tension": 0.5,
    "measure": 0,
    "beat": 0.0
  },
  {
    "time": 82.988,
    "note": "G#2",
    "midi": 44,
    "duration": 0.139,
    "velocity": 127,
    "hand": "left",
    "role": "bass",
    "phrase_start": false,
    "phrase_id": 11,
    "tension": 0.5,
    "measure": 0,
    "beat": 0.0
  },
  {
    "time": 83.267,
    "note": "A2",
    "midi": 45,
    "duration": 0.279,
    "velocity": 127,
    "hand": "left",
    "role": "bass",
    "phrase_start": false,
    "phrase_id": 12,
    "tension": 0.5,
    "measure": 0,
    "beat": 0.0
  },
  {
    "time": 83.685,
    "note": "F#2",
    "midi": 42,
    "duration": 0.139,
    "velocity": 127,
    "hand": "left",
    "role": "bass",
    "phrase_start": false,
    "phrase_id": 7,
    "tension": 0.5,
    "measure": 0,
    "beat": 0.0
  },
  {
    "time": 83.824,
    "note": "C#4",
    "midi": 61,
    "duration": 0.139,
    "velocity": 127,
    "hand": "left",
    "role": "bass",
    "phrase_start": false,
    "phrase_id": 18,
    "tension": 0.5,
    "measure": 0,
    "beat": 0.0
  },
  {
    "time": 83.963,
    "note": "D2",
    "midi": 38,
    "duration": 0.139,
    "velocity": 127,
    "hand": "left",
    "role": "bass",
    "phrase_start": false,
    "phrase_id": 2,
    "tension": 0.5,
    "measure": 0,
    "beat": 0.0
  },
  {
    "time": 84.103,
    "note": "A2",
    "midi": 45,
    "duration": 0.139,
    "velocity": 127,
    "hand": "left",
    "role": "bass",
    "phrase_start": false,
    "phrase_id": 12,
    "tension": 0.5,
    "measure": 0,
    "beat": 0.0
  },
  {
    "time": 84.242,
    "note": "F3",
    "midi": 53,
    "duration": 0.139,
    "velocity": 127,
    "hand": "left",
    "role": "bass",
    "phrase_start": false,
    "phrase_id": 15,
    "tension": 0.5,
    "measure": 0,
    "beat": 0.0
  },
  {
    "time": 84.944,
    "note": "A2",
    "midi": 45,
    "duration": 0.29,
    "velocity": 127,
    "hand": "left",
    "role": "bass",
    "phrase_start": false,
    "phrase_id": 12,
    "tension": 0.5,
    "measure": 0,
    "beat": 0.0
  },
  {
    "time": 85.519,
    "note": "E2",
    "midi": 40,
    "duration": 0.418,
    "velocity": 127,
    "hand": "left",
    "role": "bass",
    "phrase_start": false,
    "phrase_id": 3,
    "tension": 0.5,
    "measure": 0,
    "beat": 0.0
  },
  {
    "time": 85.937,
    "note": "G#2",
    "midi": 44,
    "duration": 0.139,
    "velocity": 127,
    "hand": "left",
    "role": "bass",
    "phrase_start": false,
    "phrase_id": 11,
    "tension": 0.5,
    "measure": 0,
    "beat": 0.0
  },
  {
    "time": 86.076,
    "note": "D#2",
    "midi": 39,
    "duration": 0.139,
    "velocity": 127,
    "hand": "left",
    "role": "bass",
    "phrase_start": false,
    "phrase_id": 2,
    "tension": 0.5,
    "measure": 0,
    "beat": 0.0
  },
  {
    "time": 86.355,
    "note": "E2",
    "midi": 40,
    "duration": 0.975,
    "velocity": 127,
    "hand": "left",
    "role": "bass",
    "phrase_start": false,
    "phrase_id": 3,
    "tension": 0.5,
    "measure": 0,
    "beat": 0.0
  },
  {
    "time": 87.33,
    "note": "D2",
    "midi": 38,
    "duration": 0.139,
    "velocity": 127,
    "hand": "left",
    "role": "bass",
    "phrase_start": false,
    "phrase_id": 2,
    "tension": 0.5,
    "measure": 0,
    "beat": 0.0
  },
  {
    "time": 87.609,
    "note": "D#2",
    "midi": 39,
    "duration": 0.139,
    "velocity": 127,
    "hand": "left",
    "role": "bass",
    "phrase_start": false,
    "phrase_id": 2,
    "tension": 0.5,
    "measure": 0,
    "beat": 0.0
  },
  {
    "time": 87.748,
    "note": "F#2",
    "midi": 42,
    "duration": 0.418,
    "velocity": 127,
    "hand": "left",
    "role": "bass",
    "phrase_start": false,
    "phrase_id": 7,
    "tension": 0.5,
    "measure": 0,
    "beat": 0.0
  },
  {
    "time": 88.584,
    "note": "F#2",
    "midi": 42,
    "duration": 0.72,
    "velocity": 127,
    "hand": "left",
    "role": "bass",
    "phrase_start": false,
    "phrase_id": 7,
    "tension": 0.5,
    "measure": 0,
    "beat": 0.0
  },
  {
    "time": 89.583,
    "note": "A3",
    "midi": 57,
    "duration": 0.279,
    "velocity": 127,
    "hand": "right",
    "role": "harmony",
    "phrase_start": true,
    "phrase_id": 18,
    "tension": 0.5,
    "measure": 0,
    "beat": 0.0
  },
  {
    "time": 89.583,
    "note": "G2",
    "midi": 43,
    "duration": 0.145,
    "velocity": 127,
    "hand": "left",
    "role": "bass",
    "phrase_start": true,
    "phrase_id": 11,
    "tension": 0.5,
    "measure": 0,
    "beat": 0.0
  },
  {
    "time": 89.861,
    "note": "C2",
    "midi": 36,
    "duration": 0.697,
    "velocity": 127,
    "hand": "left",
    "role": "bass",
    "phrase_start": false,
    "phrase_id": 1,
    "tension": 0.5,
    "measure": 0,
    "beat": 0.0
  },
  {
    "time": 90.697,
    "note": "D2",
    "midi": 38,
    "duration": 0.139,
    "velocity": 127,
    "hand": "left",
    "role": "bass",
    "phrase_start": false,
    "phrase_id": 2,
    "tension": 0.5,
    "measure": 0,
    "beat": 0.0
  },
  {
    "time": 90.976,
    "note": "G#3",
    "midi": 56,
    "duration": 0.139,
    "velocity": 127,
    "hand": "left",
    "role": "bass",
    "phrase_start": false,
    "phrase_id": 17,
    "tension": 0.5,
    "measure": 0,
    "beat": 0.0
  },
  {
    "time": 91.115,
    "note": "A2",
    "midi": 45,
    "duration": 0.557,
    "velocity": 127,
    "hand": "left",
    "role": "bass",
    "phrase_start": false,
    "phrase_id": 12,
    "tension": 0.5,
    "measure": 0,
    "beat": 0.0
  },
  {
    "time": 91.812,
    "note": "C#2",
    "midi": 37,
    "duration": 0.139,
    "velocity": 127,
    "hand": "left",
    "role": "bass",
    "phrase_start": false,
    "phrase_id": 2,
    "tension": 0.5,
    "measure": 0,
    "beat": 0.0
  },
  {
    "time": 92.23,
    "note": "A2",
    "midi": 45,
    "duration": 0.139,
    "velocity": 127,
    "hand": "left",
    "role": "bass",
    "phrase_start": false,
    "phrase_id": 12,
    "tension": 0.5,
    "measure": 0,
    "beat": 0.0
  },
  {
    "time": 92.369,
    "note": "F#3",
    "midi": 54,
    "duration": 0.569,
    "velocity": 127,
    "hand": "left",
    "role": "bass",
    "phrase_start": false,
    "phrase_id": 16,
    "tension": 0.5,
    "measure": 0,
    "beat": 0.0
  },
  {
    "time": 92.938,
    "note": "D2",
    "midi": 38,
    "duration": 0.145,
    "velocity": 127,
    "hand": "left",
    "role": "bass",
    "phrase_start": false,
    "phrase_id": 2,
    "tension": 0.5,
    "measure": 0,
    "beat": 0.0
  },
  {
    "time": 93.228,
    "note": "F#3",
    "midi": 54,
    "duration": 0.836,
    "velocity": 127,
    "hand": "left",
    "role": "bass",
    "phrase_start": false,
    "phrase_id": 16,
    "tension": 0.5,
    "measure": 0,
    "beat": 0.0
  },
  {
    "time": 94.203,
    "note": "D#2",
    "midi": 39,
    "duration": 0.139,
    "velocity": 127,
    "hand": "left",
    "role": "bass",
    "phrase_start": false,
    "phrase_id": 2,
    "tension": 0.5,
    "measure": 0,
    "beat": 0.0
  },
  {
    "time": 94.343,
    "note": "C#2",
    "midi": 37,
    "duration": 0.139,
    "velocity": 127,
    "hand": "left",
    "role": "bass",
    "phrase_start": false,
    "phrase_id": 2,
    "tension": 0.5,
    "measure": 0,
    "beat": 0.0
  },
  {
    "time": 94.482,
    "note": "F2",
    "midi": 41,
    "duration": 0.557,
    "velocity": 127,
    "hand": "left",
    "role": "bass",
    "phrase_start": false,
    "phrase_id": 7,
    "tension": 0.5,
    "measure": 0,
    "beat": 0.0
  },
  {
    "time": 95.179,
    "note": "C#2",
    "midi": 37,
    "duration": 0.139,
    "velocity": 127,
    "hand": "left",
    "role": "bass",
    "phrase_start": false,
    "phrase_id": 2,
    "tension": 0.5,
    "measure": 0,
    "beat": 0.0
  },
  {
    "time": 95.318,
    "note": "E2",
    "midi": 40,
    "duration": 0.836,
    "velocity": 127,
    "hand": "left",
    "role": "bass",
    "phrase_start": false,
    "phrase_id": 3,
    "tension": 0.5,
    "measure": 0,
    "beat": 0.0
  },
  {
    "time": 96.154,
    "note": "G#3",
    "midi": 56,
    "duration": 0.139,
    "velocity": 127,
    "hand": "left",
    "role": "bass",
    "phrase_start": false,
    "phrase_id": 17,
    "tension": 0.5,
    "measure": 0,
    "beat": 0.0
  },
  {
    "time": 96.293,
    "note": "D2",
    "midi": 38,
    "duration": 0.424,
    "velocity": 127,
    "hand": "left",
    "role": "bass",
    "phrase_start": false,
    "phrase_id": 2,
    "tension": 0.5,
    "measure": 0,
    "beat": 0.0
  },
  {
    "time": 96.717,
    "note": "A2",
    "midi": 45,
    "duration": 0.29,
    "velocity": 127,
    "hand": "left",
    "role": "bass",
    "phrase_start": false,
    "phrase_id": 12,
    "tension": 0.5,
    "measure": 0,
    "beat": 0.0
  },
  {
    "time": 97.007,
    "note": "F#3",
    "midi": 54,
    "duration": 0.424,
    "velocity": 127,
    "hand": "left",
    "role": "bass",
    "phrase_start": false,
    "phrase_id": 16,
    "tension": 0.5,
    "measure": 0,
    "beat": 0.0
  },
  {
    "time": 97.431,
    "note": "D#2",
    "midi": 39,
    "duration": 0.139,
    "velocity": 127,
    "hand": "left",
    "role": "bass",
    "phrase_start": false,
    "phrase_id": 2,
    "tension": 0.5,
    "measure": 0,
    "beat": 0.0
  },
  {
    "time": 97.57,
    "note": "A2",
    "midi": 45,
    "duration": 0.139,
    "velocity": 127,
    "hand": "left",
    "role": "bass",
    "phrase_start": false,
    "phrase_id": 12,
    "tension": 0.5,
    "measure": 0,
    "beat": 0.0
  },
  {
    "time": 97.849,
    "note": "F3",
    "midi": 53,
    "duration": 0.139,
    "velocity": 127,
    "hand": "left",
    "role": "bass",
    "phrase_start": false,
    "phrase_id": 15,
    "tension": 0.5,
    "measure": 0,
    "beat": 0.0
  },
  {
    "time": 97.988,
    "note": "G3",
    "midi": 55,
    "duration": 0.139,
    "velocity": 127,
    "hand": "left",
    "role": "bass",
    "phrase_start": false,
    "phrase_id": 16,
    "tension": 0.5,
    "measure": 0,
    "beat": 0.0
  },
  {
    "time": 98.267,
    "note": "G#3",
    "midi": 56,
    "duration": 0.418,
    "velocity": 127,
    "hand": "left",
    "role": "bass",
    "phrase_start": false,
    "phrase_id": 17,
    "tension": 0.5,
    "measure": 0,
    "beat": 0.0
  },
  {
    "time": 98.824,
    "note": "D#2",
    "midi": 39,
    "duration": 0.836,
    "velocity": 127,
    "hand": "left",
    "role": "bass",
    "phrase_start": false,
    "phrase_id": 2,
    "tension": 0.5,
    "measure": 0,
    "beat": 0.0
  },
  {
    "time": 99.66,
    "note": "C#2",
    "midi": 37,
    "duration": 0.139,
    "velocity": 127,
    "hand": "left",
    "role": "bass",
    "phrase_start": false,
    "phrase_id": 2,
    "tension": 0.5,
    "measure": 0,
    "beat": 0.0
  },
  {
    "time": 99.799,
    "note": "E2",
    "midi": 40,
    "duration": 0.975,
    "velocity": 127,
    "hand": "left",
    "role": "bass",
    "phrase_start": false,
    "phrase_id": 3,
    "tension": 0.5,
    "measure": 0,
    "beat": 0.0
  },
  {
    "time": 100.775,
    "note": "C#2",
    "midi": 37,
    "duration": 0.139,
    "velocity": 127,
    "hand": "left",
    "role": "bass",
    "phrase_start": false,
    "phrase_id": 2,
    "tension": 0.5,
    "measure": 0,
    "beat": 0.0
  },
  {
    "time": 100.914,
    "note": "D#2",
    "midi": 39,
    "duration": 0.279,
    "velocity": 127,
    "hand": "left",
    "role": "bass",
    "phrase_start": false,
    "phrase_id": 2,
    "tension": 0.5,
    "measure": 0,
    "beat": 0.0
  },
  {
    "time": 101.193,
    "note": "E2",
    "midi": 40,
    "duration": 0.418,
    "velocity": 127,
    "hand": "left",
    "role": "bass",
    "phrase_start": false,
    "phrase_id": 3,
    "tension": 0.5,
    "measure": 0,
    "beat": 0.0
  },
  {
    "time": 101.901,
    "note": "C#2",
    "midi": 37,
    "duration": 0.145,
    "velocity": 127,
    "hand": "left",
    "role": "bass",
    "phrase_start": false,
    "phrase_id": 2,
    "tension": 0.5,
    "measure": 0,
    "beat": 0.0
  },
  {
    "time": 102.046,
    "note": "E2",
    "midi": 40,
    "duration": 1.817,
    "velocity": 127,
    "hand": "left",
    "role": "bass",
    "phrase_start": false,
    "phrase_id": 3,
    "tension": 0.5,
    "measure": 0,
    "beat": 0.0
  },
  {
    "time": 103.306,
    "note": "C#2",
    "midi": 37,
    "duration": 0.139,
    "velocity": 127,
    "hand": "left",
    "role": "bass",
    "phrase_start": false,
    "phrase_id": 2,
    "tension": 0.5,
    "measure": 0,
    "beat": 0.0
  },
  {
    "time": 103.863,
    "note": "G#2",
    "midi": 44,
    "duration": 0.145,
    "velocity": 127,
    "hand": "left",
    "role": "bass",
    "phrase_start": false,
    "phrase_id": 11,
    "tension": 0.5,
    "measure": 0,
    "beat": 0.0
  },
  {
    "time": 104.008,
    "note": "D#2",
    "midi": 39,
    "duration": 0.145,
    "velocity": 127,
    "hand": "left",
    "role": "bass",
    "phrase_start": false,
    "phrase_id": 2,
    "tension": 0.5,
    "measure": 0,
    "beat": 0.0
  },
  {
    "time": 104.298,
    "note": "F2",
    "midi": 41,
    "duration": 0.981,
    "velocity": 127,
    "hand": "left",
    "role": "bass",
    "phrase_start": false,
    "phrase_id": 7,
    "tension": 0.5,
    "measure": 0,
    "beat": 0.0
  },
  {
    "time": 105.279,
    "note": "C#2",
    "midi": 37,
    "duration": 0.139,
    "velocity": 127,
    "hand": "left",
    "role": "bass",
    "phrase_start": false,
    "phrase_id": 2,
    "tension": 0.5,
    "measure": 0,
    "beat": 0.0
  },
  {
    "time": 105.419,
    "note": "D2",
    "midi": 38,
    "duration": 0.697,
    "velocity": 127,
    "hand": "left",
    "role": "bass",
    "phrase_start": false,
    "phrase_id": 2,
    "tension": 0.5,
    "measure": 0,
    "beat": 0.0
  },
  {
    "time": 106.394,
    "note": "D#2",
    "midi": 39,
    "duration": 0.139,
    "velocity": 127,
    "hand": "left",
    "role": "bass",
    "phrase_start": false,
    "phrase_id": 2,
    "tension": 0.5,
    "measure": 0,
    "beat": 0.0
  },
  {
    "time": 106.533,
    "note": "C#2",
    "midi": 37,
    "duration": 0.975,
    "velocity": 127,
    "hand": "left",
    "role": "bass",
    "phrase_start": false,
    "phrase_id": 2,
    "tension": 0.5,
    "measure": 0,
    "beat": 0.0
  },
  {
    "time": 107.508,
    "note": "E2",
    "midi": 40,
    "duration": 0.279,
    "velocity": 127,
    "hand": "left",
    "role": "bass",
    "phrase_start": true,
    "phrase_id": 4,
    "tension": 0.5,
    "measure": 0,
    "beat": 0.0
  },
  {
    "time": 107.926,
    "note": "A2",
    "midi": 45,
    "duration": 0.708,
    "velocity": 127,
    "hand": "left",
    "role": "bass",
    "phrase_start": false,
    "phrase_id": 12,
    "tension": 0.5,
    "measure": 0,
    "beat": 0.0
  },
  {
    "time": 108.635,
    "note": "D2",
    "midi": 38,
    "duration": 0.145,
    "velocity": 127,
    "hand": "left",
    "role": "bass",
    "phrase_start": false,
    "phrase_id": 2,
    "tension": 0.5,
    "measure": 0,
    "beat": 0.0
  },
  {
    "time": 108.78,
    "note": "A2",
    "midi": 45,
    "duration": 0.563,
    "velocity": 127,
    "hand": "left",
    "role": "bass",
    "phrase_start": false,
    "phrase_id": 12,
    "tension": 0.5,
    "measure": 0,
    "beat": 0.0
  },
  {
    "time": 109.761,
    "note": "C#2",
    "midi": 37,
    "duration": 0.836,
    "velocity": 127,
    "hand": "left",
    "role": "bass",
    "phrase_start": false,
    "phrase_id": 2,
    "tension": 0.5,
    "measure": 0,
    "beat": 0.0
  },
  {
    "time": 110.875,
    "note": "C2",
    "midi": 36,
    "duration": 0.697,
    "velocity": 127,
    "hand": "left",
    "role": "bass",
    "phrase_start": false,
    "phrase_id": 1,
    "tension": 0.5,
    "measure": 0,
    "beat": 0.0
  },
  {
    "time": 111.711,
    "note": "G#2",
    "midi": 44,
    "duration": 0.58,
    "velocity": 127,
    "hand": "left",
    "role": "bass",
    "phrase_start": false,
    "phrase_id": 11,
    "tension": 0.5,
    "measure": 0,
    "beat": 0.0
  },
  {
    "time": 112.431,
    "note": "C#2",
    "midi": 37,
    "duration": 0.418,
    "velocity": 127,
    "hand": "left",
    "role": "bass",
    "phrase_start": false,
    "phrase_id": 2,
    "tension": 0.5,
    "measure": 0,
    "beat": 0.0
  },
  {
    "time": 113.128,
    "note": "D2",
    "midi": 38,
    "duration": 1.393,
    "velocity": 127,
    "hand": "left",
    "role": "bass",
    "phrase_start": false,
    "phrase_id": 2,
    "tension": 0.5,
    "measure": 0,
    "beat": 0.0
  },
  {
    "time": 114.521,
    "note": "C#2",
    "midi": 37,
    "duration": 0.139,
    "velocity": 127,
    "hand": "left",
    "role": "bass",
    "phrase_start": false,
    "phrase_id": 2,
    "tension": 0.5,
    "measure": 0,
    "beat": 0.0
  },
  {
    "time": 114.66,
    "note": "G#2",
    "midi": 44,
    "duration": 0.557,
    "velocity": 127,
    "hand": "left",
    "role": "bass",
    "phrase_start": false,
    "phrase_id": 11,
    "tension": 0.5,
    "measure": 0,
    "beat": 0.0
  },
  {
    "time": 115.357,
    "note": "C#2",
    "midi": 37,
    "duration": 0.139,
    "velocity": 127,
    "hand": "left",
    "role": "bass",
    "phrase_start": false,
    "phrase_id": 2,
    "tension": 0.5,
    "measure": 0,
    "beat": 0.0
  },
  {
    "time": 115.496,
    "note": "G#2",
    "midi": 44,
    "duration": 0.575,
    "velocity": 127,
    "hand": "left",
    "role": "bass",
    "phrase_start": false,
    "phrase_id": 11,
    "tension": 0.5,
    "measure": 0,
    "beat": 0.0
  },
  {
    "time": 116.071,
    "note": "E4",
    "midi": 64,
    "duration": 0.145,
    "velocity": 127,
    "hand": "left",
    "role": "bass",
    "phrase_start": false,
    "phrase_id": 18,
    "tension": 0.5,
    "measure": 0,
    "beat": 0.0
  },
  {
    "time": 116.216,
    "note": "B5",
    "midi": 83,
    "duration": 0.418,
    "velocity": 127,
    "hand": "left",
    "role": "bass",
    "phrase_start": false,
    "phrase_id": 19,
    "tension": 0.5,
    "measure": 0,
    "beat": 0.0
  },
  {
    "time": 116.634,
    "note": "A2",
    "midi": 45,
    "duration": 0.836,
    "velocity": 127,
    "hand": "left",
    "role": "bass",
    "phrase_start": false,
    "phrase_id": 12,
    "tension": 0.5,
    "measure": 0,
    "beat": 0.0
  },
  {
    "time": 117.748,
    "note": "A2",
    "midi": 45,
    "duration": 0.975,
    "velocity": 127,
    "hand": "left",
    "role": "bass",
    "phrase_start": false,
    "phrase_id": 12,
    "tension": 0.5,
    "measure": 0,
    "beat": 0.0
  },
  {
    "time": 118.724,
    "note": "D2",
    "midi": 38,
    "duration": 0.139,
    "velocity": 127,
    "hand": "left",
    "role": "bass",
    "phrase_start": false,
    "phrase_id": 2,
    "tension": 0.5,
    "measure": 0,
    "beat": 0.0
  },
  {
    "time": 118.863,
    "note": "C2",
    "midi": 36,
    "duration": 0.43,
    "velocity": 127,
    "hand": "left",
    "role": "bass",
    "phrase_start": false,
    "phrase_id": 1,
    "tension": 0.5,
    "measure": 0,
    "beat": 0.0
  },
  {
    "time": 119.293,
    "note": "F#5",
    "midi": 78,
    "duration": 0.145,
    "velocity": 127,
    "hand": "left",
    "role": "bass",
    "phrase_start": false,
    "phrase_id": 19,
    "tension": 0.5,
    "measure": 0,
    "beat": 0.0
  },
  {
    "time": 119.583,
    "note": "C2",
    "midi": 36,
    "duration": 0.139,
    "velocity": 124,
    "hand": "left",
    "role": "bass",
    "phrase_start": false,
    "phrase_id": 1,
    "tension": 0.5,
    "measure": 0,
    "beat": 0.0
  },
  {
    "time": 120.279,
    "note": "A3",
    "midi": 57,
    "duration": 0.145,
    "velocity": 127,
    "hand": "left",
    "role": "bass",
    "phrase_start": false,
    "phrase_id": 18,
    "tension": 0.5,
    "measure": 0,
    "beat": 0.0
  },
  {
    "time": 121.255,
    "note": "D#2",
    "midi": 39,
    "duration": 0.145,
    "velocity": 127,
    "hand": "left",
    "role": "bass",
    "phrase_start": false,
    "phrase_id": 2,
    "tension": 0.5,
    "measure": 0,
    "beat": 0.0
  },
  {
    "time": 121.394,
    "note": "E2",
    "midi": 40,
    "duration": 0.557,
    "velocity": 127,
    "hand": "left",
    "role": "bass",
    "phrase_start": false,
    "phrase_id": 4,
    "tension": 0.5,
    "measure": 0,
    "beat": 0.0
  },
  {
    "time": 122.091,
    "note": "D#2",
    "midi": 39,
    "duration": 0.139,
    "velocity": 127,
    "hand": "left",
    "role": "bass",
    "phrase_start": false,
    "phrase_id": 2,
    "tension": 0.5,
    "measure": 0,
    "beat": 0.0
  },
  {
    "time": 122.23,
    "note": "E2",
    "midi": 40,
    "duration": 0.975,
    "velocity": 127,
    "hand": "left",
    "role": "bass",
    "phrase_start": false,
    "phrase_id": 4,
    "tension": 0.5,
    "measure": 0,
    "beat": 0.0
  },
  {
    "time": 123.205,
    "note": "C#2",
    "midi": 37,
    "duration": 0.139,
    "velocity": 127,
    "hand": "left",
    "role": "bass",
    "phrase_start": false,
    "phrase_id": 2,
    "tension": 0.5,
    "measure": 0,
    "beat": 0.0
  },
  {
    "time": 123.629,
    "note": "A2",
    "midi": 45,
    "duration": 0.29,
    "velocity": 127,
    "hand": "left",
    "role": "bass",
    "phrase_start": false,
    "phrase_id": 12,
    "tension": 0.5,
    "measure": 0,
    "beat": 0.0
  },
  {
    "time": 124.064,
    "note": "C#4",
    "midi": 61,
    "duration": 0.279,
    "velocity": 127,
    "hand": "left",
    "role": "bass",
    "phrase_start": false,
    "phrase_id": 18,
    "tension": 0.5,
    "measure": 0,
    "beat": 0.0
  },
  {
    "time": 124.343,
    "note": "C#2",
    "midi": 37,
    "duration": 0.279,
    "velocity": 127,
    "hand": "left",
    "role": "bass",
    "phrase_start": false,
    "phrase_id": 2,
    "tension": 0.5,
    "measure": 0,
    "beat": 0.0
  },
  {
    "time": 124.621,
    "note": "D4",
    "midi": 62,
    "duration": 0.139,
    "velocity": 127,
    "hand": "left",
    "role": "bass",
    "phrase_start": false,
    "phrase_id": 18,
    "tension": 0.5,
    "measure": 0,
    "beat": 0.0
  },
  {
    "time": 124.761,
    "note": "F#2",
    "midi": 42,
    "duration": 0.279,
    "velocity": 127,
    "hand": "left",
    "role": "bass",
    "phrase_start": false,
    "phrase_id": 7,
    "tension": 0.5,
    "measure": 0,
    "beat": 0.0
  },
  {
    "time": 125.179,
    "note": "A2",
    "midi": 45,
    "duration": 0.557,
    "velocity": 127,
    "hand": "left",
    "role": "bass",
    "phrase_start": false,
    "phrase_id": 12,
    "tension": 0.5,
    "measure": 0,
    "beat": 0.0
  },
  {
    "time": 125.875,
    "note": "F#2",
    "midi": 42,
    "duration": 1.834,
    "velocity": 127,
    "hand": "left",
    "role": "bass",
    "phrase_start": false,
    "phrase_id": 7,
    "tension": 0.5,
    "measure": 0,
    "beat": 0.0
  },
  {
    "time": 127.71,
    "note": "D#2",
    "midi": 39,
    "duration": 0.139,
    "velocity": 127,
    "hand": "left",
    "role": "bass",
    "phrase_start": false,
    "phrase_id": 2,
    "tension": 0.5,
    "measure": 0,
    "beat": 0.0
  },
  {
    "time": 128.128,
    "note": "E2",
    "midi": 40,
    "duration": 1.811,
    "velocity": 127,
    "hand": "left",
    "role": "bass",
    "phrase_start": false,
    "phrase_id": 4,
    "tension": 0.5,
    "measure": 0,
    "beat": 0.0
  },
  {
    "time": 129.939,
    "note": "C2",
    "midi": 36,
    "duration": 0.279,
    "velocity": 127,
    "hand": "left",
    "role": "bass",
    "phrase_start": false,
    "phrase_id": 1,
    "tension": 0.5,
    "measure": 0,
    "beat": 0.0
  },
  {
    "time": 130.218,
    "note": "D#2",
    "midi": 39,
    "duration": 0.557,
    "velocity": 127,
    "hand": "left",
    "role": "bass",
    "phrase_start": false,
    "phrase_id": 2,
    "tension": 0.5,
    "measure": 0,
    "beat": 0.0
  },
  {
    "time": 130.775,
    "note": "F2",
    "midi": 41,
    "duration": 0.145,
    "velocity": 127,
    "hand": "left",
    "role": "bass",
    "phrase_start": false,
    "phrase_id": 7,
    "tension": 0.5,
    "measure": 0,
    "beat": 0.0
  },
  {
    "time": 130.92,
    "note": "D#2",
    "midi": 39,
    "duration": 1.411,
    "velocity": 127,
    "hand": "left",
    "role": "bass",
    "phrase_start": false,
    "phrase_id": 2,
    "tension": 0.5,
    "measure": 0,
    "beat": 0.0
  },
  {
    "time": 132.47,
    "note": "A2",
    "midi": 45,
    "duration": 0.697,
    "velocity": 127,
    "hand": "left",
    "role": "bass",
    "phrase_start": false,
    "phrase_id": 12,
    "tension": 0.5,
    "measure": 0,
    "beat": 0.0
  },
  {
    "time": 133.306,
    "note": "D2",
    "midi": 38,
    "duration": 0.139,
    "velocity": 127,
    "hand": "left",
    "role": "bass",
    "phrase_start": false,
    "phrase_id": 2,
    "tension": 0.5,
    "measure": 0,
    "beat": 0.0
  },
  {
    "time": 133.584,
    "note": "C#4",
    "midi": 61,
    "duration": 0.139,
    "velocity": 127,
    "hand": "left",
    "role": "bass",
    "phrase_start": false,
    "phrase_id": 18,
    "tension": 0.5,
    "measure": 0,
    "beat": 0.0
  },
  {
    "time": 133.724,
    "note": "A2",
    "midi": 45,
    "duration": 0.563,
    "velocity": 127,
    "hand": "left",
    "role": "bass",
    "phrase_start": false,
    "phrase_id": 12,
    "tension": 0.5,
    "measure": 0,
    "beat": 0.0
  },
  {
    "time": 134.861,
    "note": "F#2",
    "midi": 42,
    "duration": 0.697,
    "velocity": 127,
    "hand": "left",
    "role": "bass",
    "phrase_start": false,
    "phrase_id": 7,
    "tension": 0.5,
    "measure": 0,
    "beat": 0.0
  },
  {
    "time": 135.558,
    "note": "D2",
    "midi": 38,
    "duration": 0.139,
    "velocity": 127,
    "hand": "left",
    "role": "bass",
    "phrase_start": false,
    "phrase_id": 2,
    "tension": 0.5,
    "measure": 0,
    "beat": 0.0
  },
  {
    "time": 135.697,
    "note": "F#2",
    "midi": 42,
    "duration": 0.418,
    "velocity": 127,
    "hand": "left",
    "role": "bass",
    "phrase_start": false,
    "phrase_id": 7,
    "tension": 0.5,
    "measure": 0,
    "beat": 0.0
  },
  {
    "time": 136.255,
    "note": "F#2",
    "midi": 42,
    "duration": 0.418,
    "velocity": 127,
    "hand": "left",
    "role": "bass",
    "phrase_start": false,
    "phrase_id": 7,
    "tension": 0.5,
    "measure": 0,
    "beat": 0.0
  },
  {
    "time": 136.673,
    "note": "D2",
    "midi": 38,
    "duration": 0.139,
    "velocity": 127,
    "hand": "left",
    "role": "bass",
    "phrase_start": false,
    "phrase_id": 2,
    "tension": 0.5,
    "measure": 0,
    "beat": 0.0
  },
  {
    "time": 136.951,
    "note": "C#2",
    "midi": 37,
    "duration": 0.139,
    "velocity": 127,
    "hand": "left",
    "role": "bass",
    "phrase_start": false,
    "phrase_id": 2,
    "tension": 0.5,
    "measure": 0,
    "beat": 0.0
  },
  {
    "time": 137.091,
    "note": "E2",
    "midi": 40,
    "duration": 0.418,
    "velocity": 127,
    "hand": "left",
    "role": "bass",
    "phrase_start": false,
    "phrase_id": 4,
    "tension": 0.5,
    "measure": 0,
    "beat": 0.0
  },
  {
    "time": 137.654,
    "note": "D#2",
    "midi": 39,
    "duration": 1.132,
    "velocity": 127,
    "hand": "left",
    "role": "bass",
    "phrase_start": false,
    "phrase_id": 2,
    "tension": 0.5,
    "measure": 0,
    "beat": 0.0
  },
  {
    "time": 138.786,
    "note": "F2",
    "midi": 41,
    "duration": 0.418,
    "velocity": 127,
    "hand": "left",
    "role": "bass",
    "phrase_start": false,
    "phrase_id": 7,
    "tension": 0.5,
    "measure": 0,
    "beat": 0.0
  },
  {
    "time": 139.204,
    "note": "C#2",
    "midi": 37,
    "duration": 0.139,
    "velocity": 127,
    "hand": "left",
    "role": "bass",
    "phrase_start": false,
    "phrase_id": 2,
    "tension": 0.5,
    "measure": 0,
    "beat": 0.0
  },
  {
    "time": 139.343,
    "note": "F2",
    "midi": 41,
    "duration": 0.697,
    "velocity": 127,
    "hand": "left",
    "role": "bass",
    "phrase_start": false,
    "phrase_id": 7,
    "tension": 0.5,
    "measure": 0,
    "beat": 0.0
  },
  {
    "time": 140.04,
    "note": "D2",
    "midi": 38,
    "duration": 0.139,
    "velocity": 127,
    "hand": "left",
    "role": "bass",
    "phrase_start": false,
    "phrase_id": 2,
    "tension": 0.5,
    "measure": 0,
    "beat": 0.0
  },
  {
    "time": 140.179,
    "note": "F#2",
    "midi": 42,
    "duration": 0.279,
    "velocity": 127,
    "hand": "left",
    "role": "bass",
    "phrase_start": true,
    "phrase_id": 8,
    "tension": 0.5,
    "measure": 0,
    "beat": 0.0
  },
  {
    "time": 140.736,
    "note": "C#3",
    "midi": 49,
    "duration": 0.139,
    "velocity": 127,
    "hand": "left",
    "role": "bass",
    "phrase_start": false,
    "phrase_id": 15,
    "tension": 0.5,
    "measure": 0,
    "beat": 0.0
  },
  {
    "time": 140.875,
    "note": "F#2",
    "midi": 42,
    "duration": 0.29,
    "velocity": 127,
    "hand": "left",
    "role": "bass",
    "phrase_start": false,
    "phrase_id": 8,
    "tension": 0.5,
    "measure": 0,
    "beat": 0.0
  },
  {
    "time": 141.166,
    "note": "D2",
    "midi": 38,
    "duration": 0.145,
    "velocity": 127,
    "hand": "left",
    "role": "bass",
    "phrase_start": false,
    "phrase_id": 2,
    "tension": 0.5,
    "measure": 0,
    "beat": 0.0
  },
  {
    "time": 141.456,
    "note": "C#2",
    "midi": 37,
    "duration": 0.139,
    "velocity": 127,
    "hand": "left",
    "role": "bass",
    "phrase_start": false,
    "phrase_id": 2,
    "tension": 0.5,
    "measure": 0,
    "beat": 0.0
  },
  {
    "time": 141.595,
    "note": "G2",
    "midi": 43,
    "duration": 0.418,
    "velocity": 127,
    "hand": "left",
    "role": "bass",
    "phrase_start": false,
    "phrase_id": 11,
    "tension": 0.5,
    "measure": 0,
    "beat": 0.0
  },
  {
    "time": 142.013,
    "note": "G#2",
    "midi": 44,
    "duration": 0.279,
    "velocity": 127,
    "hand": "left",
    "role": "bass",
    "phrase_start": false,
    "phrase_id": 11,
    "tension": 0.5,
    "measure": 0,
    "beat": 0.0
  },
  {
    "time": 142.292,
    "note": "C#2",
    "midi": 37,
    "duration": 0.279,
    "velocity": 127,
    "hand": "left",
    "role": "bass",
    "phrase_start": false,
    "phrase_id": 2,
    "tension": 0.5,
    "measure": 0,
    "beat": 0.0
  },
  {
    "time": 142.571,
    "note": "G#2",
    "midi": 44,
    "duration": 1.115,
    "velocity": 127,
    "hand": "left",
    "role": "bass",
    "phrase_start": false,
    "phrase_id": 11,
    "tension": 0.5,
    "measure": 0,
    "beat": 0.0
  },
  {
    "time": 143.685,
    "note": "D2",
    "midi": 38,
    "duration": 0.139,
    "velocity": 127,
    "hand": "left",
    "role": "bass",
    "phrase_start": false,
    "phrase_id": 2,
    "tension": 0.5,
    "measure": 0,
    "beat": 0.0
  },
  {
    "time": 143.824,
    "note": "A2",
    "midi": 45,
    "duration": 0.697,
    "velocity": 127,
    "hand": "left",
    "role": "bass",
    "phrase_start": false,
    "phrase_id": 12,
    "tension": 0.5,
    "measure": 0,
    "beat": 0.0
  },
  {
    "time": 144.521,
    "note": "D2",
    "midi": 38,
    "duration": 0.279,
    "velocity": 127,
    "hand": "left",
    "role": "bass",
    "phrase_start": false,
    "phrase_id": 2,
    "tension": 0.5,
    "measure": 0,
    "beat": 0.0
  },
  {
    "time": 144.8,
    "note": "A2",
    "midi": 45,
    "duration": 0.145,
    "velocity": 127,
    "hand": "left",
    "role": "bass",
    "phrase_start": false,
    "phrase_id": 12,
    "tension": 0.5,
    "measure": 0,
    "beat": 0.0
  },
  {
    "time": 144.945,
    "note": "G#4",
    "midi": 68,
    "duration": 0.29,
    "velocity": 127,
    "hand": "left",
    "role": "bass",
    "phrase_start": false,
    "phrase_id": 19,
    "tension": 0.5,
    "measure": 0,
    "beat": 0.0
  },
  {
    "time": 145.38,
    "note": "A2",
    "midi": 45,
    "duration": 0.279,
    "velocity": 127,
    "hand": "left",
    "role": "bass",
    "phrase_start": false,
    "phrase_id": 12,
    "tension": 0.5,
    "measure": 0,
    "beat": 0.0
  },
  {
    "time": 145.659,
    "note": "D2",
    "midi": 38,
    "duration": 0.418,
    "velocity": 127,
    "hand": "left",
    "role": "bass",
    "phrase_start": false,
    "phrase_id": 2,
    "tension": 0.5,
    "measure": 0,
    "beat": 0.0
  },
  {
    "time": 146.077,
    "note": "E2",
    "midi": 40,
    "duration": 0.697,
    "velocity": 127,
    "hand": "left",
    "role": "bass",
    "phrase_start": false,
    "phrase_id": 4,
    "tension": 0.5,
    "measure": 0,
    "beat": 0.0
  },
  {
    "time": 146.773,
    "note": "D2",
    "midi": 38,
    "duration": 0.139,
    "velocity": 127,
    "hand": "left",
    "role": "bass",
    "phrase_start": false,
    "phrase_id": 2,
    "tension": 0.5,
    "measure": 0,
    "beat": 0.0
  },
  {
    "time": 146.913,
    "note": "E2",
    "midi": 40,
    "duration": 0.557,
    "velocity": 127,
    "hand": "left",
    "role": "bass",
    "phrase_start": false,
    "phrase_id": 4,
    "tension": 0.5,
    "measure": 0,
    "beat": 0.0
  },
  {
    "time": 147.47,
    "note": "G#4",
    "midi": 68,
    "duration": 0.139,
    "velocity": 127,
    "hand": "left",
    "role": "bass",
    "phrase_start": false,
    "phrase_id": 19,
    "tension": 0.5,
    "measure": 0,
    "beat": 0.0
  },
  {
    "time": 147.609,
    "note": "F2",
    "midi": 41,
    "duration": 0.557,
    "velocity": 127,
    "hand": "left",
    "role": "bass",
    "phrase_start": false,
    "phrase_id": 7,
    "tension": 0.5,
    "measure": 0,
    "beat": 0.0
  },
  {
    "time": 148.167,
    "note": "D#2",
    "midi": 39,
    "duration": 0.139,
    "velocity": 127,
    "hand": "left",
    "role": "bass",
    "phrase_start": false,
    "phrase_id": 2,
    "tension": 0.5,
    "measure": 0,
    "beat": 0.0
  },
  {
    "time": 148.306,
    "note": "A2",
    "midi": 45,
    "duration": 0.139,
    "velocity": 127,
    "hand": "left",
    "role": "bass",
    "phrase_start": true,
    "phrase_id": 13,
    "tension": 0.5,
    "measure": 0,
    "beat": 0.0
  },
  {
    "time": 148.584,
    "note": "G2",
    "midi": 43,
    "duration": 0.284,
    "velocity": 127,
    "hand": "left",
    "role": "bass",
    "phrase_start": false,
    "phrase_id": 11,
    "tension": 0.5,
    "measure": 0,
    "beat": 0.0
  },
  {
    "time": 149.159,
    "note": "G#2",
    "midi": 44,
    "duration": 0.284,
    "velocity": 127,
    "hand": "right",
    "role": "harmony",
    "phrase_start": false,
    "phrase_id": 11,
    "tension": 0.5,
    "measure": 0,
    "beat": 0.0
  },
  {
    "time": 149.159,
    "note": "C#2",
    "midi": 37,
    "duration": 0.145,
    "velocity": 127,
    "hand": "left",
    "role": "bass",
    "phrase_start": false,
    "phrase_id": 2,
    "tension": 0.5,
    "measure": 0,
    "beat": 0.0
  },
  {
    "time": 149.583,
    "note": "G2",
    "midi": 43,
    "duration": 0.279,
    "velocity": 127,
    "hand": "left",
    "role": "bass",
    "phrase_start": false,
    "phrase_id": 11,
    "tension": 0.5,
    "measure": 0,
    "beat": 0.0
  },
  {
    "time": 149.862,
    "note": "D4",
    "midi": 62,
    "duration": 0.279,
    "velocity": 127,
    "hand": "left",
    "role": "bass",
    "phrase_start": false,
    "phrase_id": 18,
    "tension": 0.5,
    "measure": 0,
    "beat": 0.0
  },
  {
    "time": 150.14,
    "note": "D2",
    "midi": 38,
    "duration": 0.139,
    "velocity": 127,
    "hand": "left",
    "role": "bass",
    "phrase_start": false,
    "phrase_id": 2,
    "tension": 0.5,
    "measure": 0,
    "beat": 0.0
  },
  {
    "time": 150.28,
    "note": "F#2",
    "midi": 42,
    "duration": 0.139,
    "velocity": 127,
    "hand": "left",
    "role": "bass",
    "phrase_start": false,
    "phrase_id": 8,
    "tension": 0.5,
    "measure": 0,
    "beat": 0.0
  },
  {
    "time": 150.558,
    "note": "C#2",
    "midi": 37,
    "duration": 0.557,
    "velocity": 127,
    "hand": "left",
    "role": "bass",
    "phrase_start": false,
    "phrase_id": 2,
    "tension": 0.5,
    "measure": 0,
    "beat": 0.0
  },
  {
    "time": 151.255,
    "note": "C#2",
    "midi": 37,
    "duration": 1.115,
    "velocity": 127,
    "hand": "left",
    "role": "bass",
    "phrase_start": false,
    "phrase_id": 2,
    "tension": 0.5,
    "measure": 0,
    "beat": 0.0
  },
  {
    "time": 152.369,
    "note": "G2",
    "midi": 43,
    "duration": 0.279,
    "velocity": 127,
    "hand": "left",
    "role": "bass",
    "phrase_start": false,
    "phrase_id": 11,
    "tension": 0.5,
    "measure": 0,
    "beat": 0.0
  },
  {
    "time": 152.793,
    "note": "A2",
    "midi": 45,
    "duration": 0.435,
    "velocity": 127,
    "hand": "left",
    "role": "bass",
    "phrase_start": false,
    "phrase_id": 13,
    "tension": 0.5,
    "measure": 0,
    "beat": 0.0
  },
  {
    "time": 153.228,
    "note": "F#2",
    "midi": 42,
    "duration": 0.139,
    "velocity": 127,
    "hand": "left",
    "role": "bass",
    "phrase_start": false,
    "phrase_id": 8,
    "tension": 0.5,
    "measure": 0,
    "beat": 0.0
  },
  {
    "time": 153.507,
    "note": "D2",
    "midi": 38,
    "duration": 0.139,
    "velocity": 127,
    "hand": "left",
    "role": "bass",
    "phrase_start": false,
    "phrase_id": 2,
    "tension": 0.5,
    "measure": 0,
    "beat": 0.0
  },
  {
    "time": 153.646,
    "note": "A2",
    "midi": 45,
    "duration": 0.418,
    "velocity": 127,
    "hand": "left",
    "role": "bass",
    "phrase_start": false,
    "phrase_id": 13,
    "tension": 0.5,
    "measure": 0,
    "beat": 0.0
  },
  {
    "time": 154.064,
    "note": "D#4",
    "midi": 63,
    "duration": 0.279,
    "velocity": 127,
    "hand": "left",
    "role": "bass",
    "phrase_start": false,
    "phrase_id": 18,
    "tension": 0.5,
    "measure": 0,
    "beat": 0.0
  },
  {
    "time": 154.482,
    "note": "A2",
    "midi": 45,
    "duration": 0.139,
    "velocity": 127,
    "hand": "left",
    "role": "bass",
    "phrase_start": false,
    "phrase_id": 13,
    "tension": 0.5,
    "measure": 0,
    "beat": 0.0
  },
  {
    "time": 154.622,
    "note": "C#2",
    "midi": 37,
    "duration": 0.279,
    "velocity": 127,
    "hand": "left",
    "role": "bass",
    "phrase_start": false,
    "phrase_id": 2,
    "tension": 0.5,
    "measure": 0,
    "beat": 0.0
  },
  {
    "time": 154.9,
    "note": "D#2",
    "midi": 39,
    "duration": 0.418,
    "velocity": 127,
    "hand": "left",
    "role": "bass",
    "phrase_start": false,
    "phrase_id": 2,
    "tension": 0.5,
    "measure": 0,
    "beat": 0.0
  },
  {
    "time": 155.318,
    "note": "F2",
    "midi": 41,
    "duration": 0.139,
    "velocity": 127,
    "hand": "left",
    "role": "bass",
    "phrase_start": false,
    "phrase_id": 7,
    "tension": 0.5,
    "measure": 0,
    "beat": 0.0
  },
  {
    "time": 155.736,
    "note": "D#2",
    "midi": 39,
    "duration": 0.145,
    "velocity": 127,
    "hand": "left",
    "role": "bass",
    "phrase_start": false,
    "phrase_id": 2,
    "tension": 0.5,
    "measure": 0,
    "beat": 0.0
  },
  {
    "time": 155.876,
    "note": "E2",
    "midi": 40,
    "duration": 1.115,
    "velocity": 127,
    "hand": "left",
    "role": "bass",
    "phrase_start": false,
    "phrase_id": 4,
    "tension": 0.5,
    "measure": 0,
    "beat": 0.0
  },
  {
    "time": 157.129,
    "note": "C#2",
    "midi": 37,
    "duration": 0.145,
    "velocity": 127,
    "hand": "left",
    "role": "bass",
    "phrase_start": false,
    "phrase_id": 2,
    "tension": 0.5,
    "measure": 0,
    "beat": 0.0
  },
  {
    "time": 157.275,
    "note": "F#2",
    "midi": 42,
    "duration": 0.435,
    "velocity": 127,
    "hand": "left",
    "role": "bass",
    "phrase_start": false,
    "phrase_id": 8,
    "tension": 0.5,
    "measure": 0,
    "beat": 0.0
  },
  {
    "time": 157.849,
    "note": "G#2",
    "midi": 44,
    "duration": 0.139,
    "velocity": 127,
    "hand": "left",
    "role": "bass",
    "phrase_start": false,
    "phrase_id": 11,
    "tension": 0.5,
    "measure": 0,
    "beat": 0.0
  },
  {
    "time": 158.128,
    "note": "F#2",
    "midi": 42,
    "duration": 0.975,
    "velocity": 127,
    "hand": "left",
    "role": "bass",
    "phrase_start": false,
    "phrase_id": 8,
    "tension": 0.5,
    "measure": 0,
    "beat": 0.0
  },
  {
    "time": 159.103,
    "note": "C#2",
    "midi": 37,
    "duration": 0.557,
    "velocity": 127,
    "hand": "left",
    "role": "bass",
    "phrase_start": false,
    "phrase_id": 2,
    "tension": 0.5,
    "measure": 0,
    "beat": 0.0
  },
  {
    "time": 159.66,
    "note": "C2",
    "midi": 36,
    "duration": 0.424,
    "velocity": 127,
    "hand": "left",
    "role": "bass",
    "phrase_start": false,
    "phrase_id": 1,
    "tension": 0.5,
    "measure": 0,
    "beat": 0.0
  },
  {
    "time": 160.084,
    "note": "D#2",
    "midi": 39,
    "duration": 0.145,
    "velocity": 127,
    "hand": "left",
    "role": "bass",
    "phrase_start": false,
    "phrase_id": 2,
    "tension": 0.5,
    "measure": 0,
    "beat": 0.0
  },
  {
    "time": 160.229,
    "note": "C#2",
    "midi": 37,
    "duration": 0.145,
    "velocity": 127,
    "hand": "left",
    "role": "bass",
    "phrase_start": false,
    "phrase_id": 2,
    "tension": 0.5,
    "measure": 0,
    "beat": 0.0
  },
  {
    "time": 160.374,
    "note": "A2",
    "midi": 45,
    "duration": 0.981,
    "velocity": 127,
    "hand": "left",
    "role": "bass",
    "phrase_start": true,
    "phrase_id": 14,
    "tension": 0.5,
    "measure": 0,
    "beat": 0.0
  },
  {
    "time": 161.355,
    "note": "F#3",
    "midi": 54,
    "duration": 0.145,
    "velocity": 127,
    "hand": "right",
    "role": "harmony",
    "phrase_start": false,
    "phrase_id": 16,
    "tension": 0.5,
    "measure": 0,
    "beat": 0.0
  },
  {
    "time": 161.355,
    "note": "E3",
    "midi": 52,
    "duration": 0.139,
    "velocity": 127,
    "hand": "left",
    "role": "bass",
    "phrase_start": false,
    "phrase_id": 15,
    "tension": 0.5,
    "measure": 0,
    "beat": 0.0
  },
  {
    "time": 161.773,
    "note": "F#3",
    "midi": 54,
    "duration": 0.418,
    "velocity": 127,
    "hand": "left",
    "role": "bass",
    "phrase_start": false,
    "phrase_id": 16,
    "tension": 0.5,
    "measure": 0,
    "beat": 0.0
  },
  {
    "time": 162.191,
    "note": "F#2",
    "midi": 42,
    "duration": 0.139,
    "velocity": 127,
    "hand": "left",
    "role": "bass",
    "phrase_start": false,
    "phrase_id": 8,
    "tension": 0.5,
    "measure": 0,
    "beat": 0.0
  },
  {
    "time": 162.331,
    "note": "F3",
    "midi": 53,
    "duration": 0.139,
    "velocity": 127,
    "hand": "left",
    "role": "bass",
    "phrase_start": false,
    "phrase_id": 15,
    "tension": 0.5,
    "measure": 0,
    "beat": 0.0
  },
  {
    "time": 162.47,
    "note": "D2",
    "midi": 38,
    "duration": 0.139,
    "velocity": 127,
    "hand": "left",
    "role": "bass",
    "phrase_start": false,
    "phrase_id": 2,
    "tension": 0.5,
    "measure": 0,
    "beat": 0.0
  },
  {
    "time": 162.609,
    "note": "F#3",
    "midi": 54,
    "duration": 0.557,
    "velocity": 127,
    "hand": "left",
    "role": "bass",
    "phrase_start": false,
    "phrase_id": 16,
    "tension": 0.5,
    "measure": 0,
    "beat": 0.0
  },
  {
    "time": 163.585,
    "note": "C#2",
    "midi": 37,
    "duration": 0.279,
    "velocity": 127,
    "hand": "left",
    "role": "bass",
    "phrase_start": false,
    "phrase_id": 2,
    "tension": 0.5,
    "measure": 0,
    "beat": 0.0
  },
  {
    "time": 163.863,
    "note": "D#2",
    "midi": 39,
    "duration": 0.139,
    "velocity": 127,
    "hand": "left",
    "role": "bass",
    "phrase_start": false,
    "phrase_id": 2,
    "tension": 0.5,
    "measure": 0,
    "beat": 0.0
  },
  {
    "time": 164.003,
    "note": "E2",
    "midi": 40,
    "duration": 1.695,
    "velocity": 127,
    "hand": "left",
    "role": "bass",
    "phrase_start": false,
    "phrase_id": 4,
    "tension": 0.5,
    "measure": 0,
    "beat": 0.0
  },
  {
    "time": 165.698,
    "note": "G2",
    "midi": 43,
    "duration": 0.139,
    "velocity": 127,
    "hand": "left",
    "role": "bass",
    "phrase_start": false,
    "phrase_id": 11,
    "tension": 0.5,
    "measure": 0,
    "beat": 0.0
  },
  {
    "time": 166.116,
    "note": "C#2",
    "midi": 37,
    "duration": 0.139,
    "velocity": 127,
    "hand": "left",
    "role": "bass",
    "phrase_start": false,
    "phrase_id": 2,
    "tension": 0.5,
    "measure": 0,
    "beat": 0.0
  },
  {
    "time": 166.255,
    "note": "A2",
    "midi": 45,
    "duration": 0.139,
    "velocity": 127,
    "hand": "left",
    "role": "bass",
    "phrase_start": false,
    "phrase_id": 14,
    "tension": 0.5,
    "measure": 0,
    "beat": 0.0
  },
  {
    "time": 166.394,
    "note": "F#3",
    "midi": 54,
    "duration": 0.557,
    "velocity": 127,
    "hand": "left",
    "role": "bass",
    "phrase_start": false,
    "phrase_id": 16,
    "tension": 0.5,
    "measure": 0,
    "beat": 0.0
  },
  {
    "time": 166.951,
    "note": "D#2",
    "midi": 39,
    "duration": 0.139,
    "velocity": 127,
    "hand": "left",
    "role": "bass",
    "phrase_start": false,
    "phrase_id": 2,
    "tension": 0.5,
    "measure": 0,
    "beat": 0.0
  },
  {
    "time": 167.091,
    "note": "F3",
    "midi": 53,
    "duration": 0.279,
    "velocity": 127,
    "hand": "left",
    "role": "bass",
    "phrase_start": false,
    "phrase_id": 15,
    "tension": 0.5,
    "measure": 0,
    "beat": 0.0
  },
  {
    "time": 167.509,
    "note": "G3",
    "midi": 55,
    "duration": 0.279,
    "velocity": 127,
    "hand": "left",
    "role": "bass",
    "phrase_start": false,
    "phrase_id": 16,
    "tension": 0.5,
    "measure": 0,
    "beat": 0.0
  },
  {
    "time": 168.078,
    "note": "C#2",
    "midi": 37,
    "duration": 0.145,
    "velocity": 127,
    "hand": "left",
    "role": "bass",
    "phrase_start": false,
    "phrase_id": 2,
    "tension": 0.5,
    "measure": 0,
    "beat": 0.0
  },
  {
    "time": 168.507,
    "note": "E2",
    "midi": 40,
    "duration": 0.557,
    "velocity": 127,
    "hand": "left",
    "role": "bass",
    "phrase_start": false,
    "phrase_id": 4,
    "tension": 0.5,
    "measure": 0,
    "beat": 0.0
  },
  {
    "time": 169.204,
    "note": "D2",
    "midi": 38,
    "duration": 0.139,
    "velocity": 127,
    "hand": "left",
    "role": "bass",
    "phrase_start": false,
    "phrase_id": 2,
    "tension": 0.5,
    "measure": 0,
    "beat": 0.0
  },
  {
    "time": 169.343,
    "note": "E2",
    "midi": 40,
    "duration": 1.254,
    "velocity": 127,
    "hand": "left",
    "role": "bass",
    "phrase_start": false,
    "phrase_id": 4,
    "tension": 0.5,
    "measure": 0,
    "beat": 0.0
  },
  {
    "time": 170.597,
    "note": "C#2",
    "midi": 37,
    "duration": 0.279,
    "velocity": 127,
    "hand": "left",
    "role": "bass",
    "phrase_start": false,
    "phrase_id": 2,
    "tension": 0.5,
    "measure": 0,
    "beat": 0.0
  },
  {
    "time": 171.433,
    "note": "D2",
    "midi": 38,
    "duration": 0.279,
    "velocity": 127,
    "hand": "left",
    "role": "bass",
    "phrase_start": false,
    "phrase_id": 2,
    "tension": 0.5,
    "measure": 0,
    "beat": 0.0
  },
  {
    "time": 171.712,
    "note": "D#4",
    "midi": 63,
    "duration": 0.145,
    "velocity": 127,
    "hand": "left",
    "role": "bass",
    "phrase_start": false,
    "phrase_id": 18,
    "tension": 0.5,
    "measure": 0,
    "beat": 0.0
  },
  {
    "time": 172.147,
    "note": "F3",
    "midi": 53,
    "duration": 0.145,
    "velocity": 127,
    "hand": "left",
    "role": "bass",
    "phrase_start": false,
    "phrase_id": 15,
    "tension": 0.5,
    "measure": 0,
    "beat": 0.0
  },
  {
    "time": 172.292,
    "note": "D#4",
    "midi": 63,
    "duration": 0.139,
    "velocity": 127,
    "hand": "left",
    "role": "bass",
    "phrase_start": false,
    "phrase_id": 18,
    "tension": 0.5,
    "measure": 0,
    "beat": 0.0
  },
  {
    "time": 172.571,
    "note": "C#2",
    "midi": 37,
    "duration": 2.392,
    "velocity": 127,
    "hand": "left",
    "role": "bass",
    "phrase_start": false,
    "phrase_id": 2,
    "tension": 0.5,
    "measure": 0,
    "beat": 0.0
  },
  {
    "time": 174.962,
    "note": "G#2",
    "midi": 44,
    "duration": 0.697,
    "velocity": 127,
    "hand": "left",
    "role": "bass",
    "phrase_start": false,
    "phrase_id": 11,
    "tension": 0.5,
    "measure": 0,
    "beat": 0.0
  },
  {
    "time": 176.06,
    "note": "D#3",
    "midi": 51,
    "duration": 0.871,
    "velocity": 127,
    "hand": "left",
    "role": "bass",
    "phrase_start": false,
    "phrase_id": 15,
    "tension": 0.5,
    "measure": 0,
    "beat": 0.0
  },
  {
    "time": 176.93,
    "note": "E4",
    "midi": 64,
    "duration": 0.267,
    "velocity": 127,
    "hand": "left",
    "role": "bass",
    "phrase_start": true,
    "phrase_id": 19,
    "tension": 0.5,
    "measure": 0,
    "beat": 0.0
  },
  {
    "time": 177.331,
    "note": "A2",
    "midi": 45,
    "duration": 0.488,
    "velocity": 127,
    "hand": "left",
    "role": "bass",
    "phrase_start": false,
    "phrase_id": 14,
    "tension": 0.5,
    "measure": 0,
    "beat": 0.0
  },
  {
    "time": 177.818,
    "note": "E3",
    "midi": 52,
    "duration": 0.418,
    "velocity": 127,
    "hand": "left",
    "role": "bass",
    "phrase_start": false,
    "phrase_id": 15,
    "tension": 0.5,
    "measure": 0,
    "beat": 0.0
  },
  {
    "time": 178.236,
    "note": "A2",
    "midi": 45,
    "duration": 0.284,
    "velocity": 127,
    "hand": "left",
    "role": "bass",
    "phrase_start": false,
    "phrase_id": 14,
    "tension": 0.5,
    "measure": 0,
    "beat": 0.0
  },
  {
    "time": 178.521,
    "note": "A3",
    "midi": 57,
    "duration": 0.145,
    "velocity": 127,
    "hand": "left",
    "role": "bass",
    "phrase_start": false,
    "phrase_id": 18,
    "tension": 0.5,
    "measure": 0,
    "beat": 0.0
  },
  {
    "time": 179.101,
    "note": "A2",
    "midi": 45,
    "duration": 0.145,
    "velocity": 127,
    "hand": "left",
    "role": "bass",
    "phrase_start": false,
    "phrase_id": 14,
    "tension": 0.5,
    "measure": 0,
    "beat": 0.0
  },
  {
    "time": 179.392,
    "note": "E2",
    "midi": 40,
    "duration": 1.887,
    "velocity": 127,
    "hand": "left",
    "role": "bass",
    "phrase_start": false,
    "phrase_id": 4,
    "tension": 0.5,
    "measure": 0,
    "beat": 0.0
  },
  {
    "time": 181.278,
    "note": "D4",
    "midi": 62,
    "duration": 0.139,
    "velocity": 127,
    "hand": "left",
    "role": "bass",
    "phrase_start": false,
    "phrase_id": 18,
    "tension": 0.5,
    "measure": 0,
    "beat": 0.0
  },
  {
    "time": 181.835,
    "note": "C2",
    "midi": 36,
    "duration": 0.435,
    "velocity": 127,
    "hand": "left",
    "role": "bass",
    "phrase_start": false,
    "phrase_id": 1,
    "tension": 0.5,
    "measure": 0,
    "beat": 0.0
  },
  {
    "time": 182.271,
    "note": "F#3",
    "midi": 54,
    "duration": 0.424,
    "velocity": 127,
    "hand": "left",
    "role": "bass",
    "phrase_start": false,
    "phrase_id": 16,
    "tension": 0.5,
    "measure": 0,
    "beat": 0.0
  },
  {
    "time": 183.113,
    "note": "D#3",
    "midi": 51,
    "duration": 0.139,
    "velocity": 127,
    "hand": "left",
    "role": "bass",
    "phrase_start": false,
    "phrase_id": 15,
    "tension": 0.5,
    "measure": 0,
    "beat": 0.0
  },
  {
    "time": 183.676,
    "note": "E3",
    "midi": 52,
    "duration": 0.29,
    "velocity": 127,
    "hand": "left",
    "role": "bass",
    "phrase_start": false,
    "phrase_id": 15,
    "tension": 0.5,
    "measure": 0,
    "beat": 0.0
  },
  {
    "time": 183.966,
    "note": "D2",
    "midi": 38,
    "duration": 2.212,
    "velocity": 127,
    "hand": "left",
    "role": "bass",
    "phrase_start": false,
    "phrase_id": 2,
    "tension": 0.5,
    "measure": 0,
    "beat": 0.0
  },
  {
    "time": 186.178,
    "note": "G#2",
    "midi": 44,
    "duration": 0.284,
    "velocity": 127,
    "hand": "left",
    "role": "bass",
    "phrase_start": false,
    "phrase_id": 11,
    "tension": 0.5,
    "measure": 0,
    "beat": 0.0
  },
  {
    "time": 186.607,
    "note": "A2",
    "midi": 45,
    "duration": 0.708,
    "velocity": 127,
    "hand": "left",
    "role": "bass",
    "phrase_start": false,
    "phrase_id": 14,
    "tension": 0.5,
    "measure": 0,
    "beat": 0.0
  },
  {
    "time": 187.455,
    "note": "G#3",
    "midi": 56,
    "duration": 0.139,
    "velocity": 127,
    "hand": "left",
    "role": "bass",
    "phrase_start": false,
    "phrase_id": 17,
    "tension": 0.5,
    "measure": 0,
    "beat": 0.0
  },
  {
    "time": 187.873,
    "note": "F#3",
    "midi": 54,
    "duration": 0.139,
    "velocity": 127,
    "hand": "left",
    "role": "bass",
    "phrase_start": false,
    "phrase_id": 16,
    "tension": 0.5,
    "measure": 0,
    "beat": 0.0
  },
  {
    "time": 188.163,
    "note": "F3",
    "midi": 53,
    "duration": 0.151,
    "velocity": 127,
    "hand": "left",
    "role": "bass",
    "phrase_start": false,
    "phrase_id": 15,
    "tension": 0.5,
    "measure": 0,
    "beat": 0.0
  },
  {
    "time": 188.465,
    "note": "G#2",
    "midi": 44,
    "duration": 0.569,
    "velocity": 127,
    "hand": "left",
    "role": "bass",
    "phrase_start": false,
    "phrase_id": 11,
    "tension": 0.5,
    "measure": 0,
    "beat": 0.0
  },
  {
    "time": 189.034,
    "note": "A3",
    "midi": 57,
    "duration": 0.139,
    "velocity": 127,
    "hand": "left",
    "role": "bass",
    "phrase_start": false,
    "phrase_id": 18,
    "tension": 0.5,
    "measure": 0,
    "beat": 0.0
  },
  {
    "time": 189.173,
    "note": "A2",
    "midi": 45,
    "duration": 0.279,
    "velocity": 127,
    "hand": "left",
    "role": "bass",
    "phrase_start": false,
    "phrase_id": 14,
    "tension": 0.5,
    "measure": 0,
    "beat": 0.0
  },
  {
    "time": 189.452,
    "note": "A3",
    "midi": 57,
    "duration": 0.139,
    "velocity": 127,
    "hand": "left",
    "role": "bass",
    "phrase_start": false,
    "phrase_id": 18,
    "tension": 0.5,
    "measure": 0,
    "beat": 0.0
  },
  {
    "time": 189.591,
    "note": "A2",
    "midi": 45,
    "duration": 0.139,
    "velocity": 127,
    "hand": "left",
    "role": "bass",
    "phrase_start": false,
    "phrase_id": 14,
    "tension": 0.5,
    "measure": 0,
    "beat": 0.0
  },
  {
    "time": 189.864,
    "note": "A2",
    "midi": 45,
    "duration": 0.534,
    "velocity": 127,
    "hand": "left",
    "role": "bass",
    "phrase_start": false,
    "phrase_id": 14,
    "tension": 0.5,
    "measure": 0,
    "beat": 0.0
  },
  {
    "time": 190.398,
    "note": "A3",
    "midi": 57,
    "duration": 0.134,
    "velocity": 127,
    "hand": "left",
    "role": "bass",
    "phrase_start": false,
    "phrase_id": 18,
    "tension": 0.5,
    "measure": 0,
    "beat": 0.0
  },
  {
    "time": 190.665,
    "note": "E2",
    "midi": 40,
    "duration": 1.295,
    "velocity": 127,
    "hand": "left",
    "role": "bass",
    "phrase_start": false,
    "phrase_id": 4,
    "tension": 0.5,
    "measure": 0,
    "beat": 0.0
  },
  {
    "time": 191.959,
    "note": "A3",
    "midi": 57,
    "duration": 0.145,
    "velocity": 127,
    "hand": "left",
    "role": "bass",
    "phrase_start": false,
    "phrase_id": 18,
    "tension": 0.5,
    "measure": 0,
    "beat": 0.0
  },
  {
    "time": 192.104,
    "note": "F2",
    "midi": 41,
    "duration": 0.435,
    "velocity": 127,
    "hand": "left",
    "role": "bass",
    "phrase_start": false,
    "phrase_id": 7,
    "tension": 0.5,
    "measure": 0,
    "beat": 0.0
  },
  {
    "time": 192.685,
    "note": "F2",
    "midi": 41,
    "duration": 0.29,
    "velocity": 127,
    "hand": "left",
    "role": "bass",
    "phrase_start": false,
    "phrase_id": 7,
    "tension": 0.5,
    "measure": 0,
    "beat": 0.0
  },
  {
    "time": 192.975,
    "note": "C2",
    "midi": 36,
    "duration": 0.679,
    "velocity": 127,
    "hand": "left",
    "role": "bass",
    "phrase_start": false,
    "phrase_id": 1,
    "tension": 0.5,
    "measure": 0,
    "beat": 0.0
  },
  {
    "time": 193.654,
    "note": "F#3",
    "midi": 54,
    "duration": 0.668,
    "velocity": 127,
    "hand": "left",
    "role": "bass",
    "phrase_start": false,
    "phrase_id": 16,
    "tension": 0.5,
    "measure": 0,
    "beat": 0.0
  },
  {
    "time": 194.322,
    "note": "B3",
    "midi": 59,
    "duration": 0.134,
    "velocity": 127,
    "hand": "left",
    "role": "bass",
    "phrase_start": false,
    "phrase_id": 18,
    "tension": 0.5,
    "measure": 0,
    "beat": 0.0
  },
  {
    "time": 194.456,
    "note": "F#3",
    "midi": 54,
    "duration": 0.134,
    "velocity": 127,
    "hand": "left",
    "role": "bass",
    "phrase_start": false,
    "phrase_id": 16,
    "tension": 0.5,
    "measure": 0,
    "beat": 0.0
  },
  {
    "time": 194.589,
    "note": "G#2",
    "midi": 44,
    "duration": 0.412,
    "velocity": 127,
    "hand": "left",
    "role": "bass",
    "phrase_start": false,
    "phrase_id": 11,
    "tension": 0.5,
    "measure": 0,
    "beat": 0.0
  },
  {
    "time": 195.001,
    "note": "F#2",
    "midi": 42,
    "duration": 0.279,
    "velocity": 127,
    "hand": "left",
    "role": "bass",
    "phrase_start": false,
    "phrase_id": 8,
    "tension": 0.5,
    "measure": 0,
    "beat": 0.0
  },
  {
    "time": 195.28,
    "note": "C#2",
    "midi": 37,
    "duration": 0.139,
    "velocity": 127,
    "hand": "left",
    "role": "bass",
    "phrase_start": false,
    "phrase_id": 2,
    "tension": 0.5,
    "measure": 0,
    "beat": 0.0
  },
  {
    "time": 195.419,
    "note": "E2",
    "midi": 40,
    "duration": 0.418,
    "velocity": 127,
    "hand": "left",
    "role": "bass",
    "phrase_start": false,
    "phrase_id": 4,
    "tension": 0.5,
    "measure": 0,
    "beat": 0.0
  },
  {
    "time": 196.255,
    "note": "E2",
    "midi": 40,
    "duration": 0.975,
    "velocity": 127,
    "hand": "left",
    "role": "bass",
    "phrase_start": false,
    "phrase_id": 4,
    "tension": 0.5,
    "measure": 0,
    "beat": 0.0
  },
  {
    "time": 197.23,
    "note": "F#2",
    "midi": 42,
    "duration": 0.139,
    "velocity": 127,
    "hand": "left",
    "role": "bass",
    "phrase_start": false,
    "phrase_id": 8,
    "tension": 0.5,
    "measure": 0,
    "beat": 0.0
  },
  {
    "time": 197.37,
    "note": "E2",
    "midi": 40,
    "duration": 0.139,
    "velocity": 127,
    "hand": "left",
    "role": "bass",
    "phrase_start": false,
    "phrase_id": 4,
    "tension": 0.5,
    "measure": 0,
    "beat": 0.0
  },
  {
    "time": 197.509,
    "note": "C#2",
    "midi": 37,
    "duration": 0.139,
    "velocity": 127,
    "hand": "left",
    "role": "bass",
    "phrase_start": false,
    "phrase_id": 2,
    "tension": 0.5,
    "measure": 0,
    "beat": 0.0
  },
  {
    "time": 197.648,
    "note": "A2",
    "midi": 45,
    "duration": 0.418,
    "velocity": 127,
    "hand": "left",
    "role": "bass",
    "phrase_start": true,
    "phrase_id": 15,
    "tension": 0.5,
    "measure": 0,
    "beat": 0.0
  },
  {
    "time": 198.345,
    "note": "D#2",
    "midi": 39,
    "duration": 0.139,
    "velocity": 127,
    "hand": "left",
    "role": "bass",
    "phrase_start": false,
    "phrase_id": 2,
    "tension": 0.5,
    "measure": 0,
    "beat": 0.0
  },
  {
    "time": 198.484,
    "note": "A2",
    "midi": 45,
    "duration": 0.557,
    "velocity": 127,
    "hand": "left",
    "role": "bass",
    "phrase_start": false,
    "phrase_id": 15,
    "tension": 0.5,
    "measure": 0,
    "beat": 0.0
  },
  {
    "time": 199.738,
    "note": "C#2",
    "midi": 37,
    "duration": 0.145,
    "velocity": 127,
    "hand": "left",
    "role": "bass",
    "phrase_start": false,
    "phrase_id": 2,
    "tension": 0.5,
    "measure": 0,
    "beat": 0.0
  },
  {
    "time": 199.883,
    "note": "G#2",
    "midi": 44,
    "duration": 0.29,
    "velocity": 127,
    "hand": "left",
    "role": "bass",
    "phrase_start": false,
    "phrase_id": 11,
    "tension": 0.5,
    "measure": 0,
    "beat": 0.0
  },
  {
    "time": 200.597,
    "note": "C#2",
    "midi": 37,
    "duration": 0.139,
    "velocity": 127,
    "hand": "left",
    "role": "bass",
    "phrase_start": false,
    "phrase_id": 2,
    "tension": 0.5,
    "measure": 0,
    "beat": 0.0
  },
  {
    "time": 200.737,
    "note": "A2",
    "midi": 45,
    "duration": 0.279,
    "velocity": 127,
    "hand": "left",
    "role": "bass",
    "phrase_start": false,
    "phrase_id": 15,
    "tension": 0.5,
    "measure": 0,
    "beat": 0.0
  },
  {
    "time": 201.154,
    "note": "D#2",
    "midi": 39,
    "duration": 0.279,
    "velocity": 127,
    "hand": "left",
    "role": "bass",
    "phrase_start": false,
    "phrase_id": 2,
    "tension": 0.5,
    "measure": 0,
    "beat": 0.0
  },
  {
    "time": 201.433,
    "note": "A2",
    "midi": 45,
    "duration": 0.279,
    "velocity": 127,
    "hand": "left",
    "role": "bass",
    "phrase_start": false,
    "phrase_id": 15,
    "tension": 0.5,
    "measure": 0,
    "beat": 0.0
  },
  {
    "time": 201.712,
    "note": "C2",
    "midi": 36,
    "duration": 0.279,
    "velocity": 127,
    "hand": "left",
    "role": "bass",
    "phrase_start": false,
    "phrase_id": 1,
    "tension": 0.5,
    "measure": 0,
    "beat": 0.0
  },
  {
    "time": 201.99,
    "note": "D2",
    "midi": 38,
    "duration": 0.697,
    "velocity": 127,
    "hand": "left",
    "role": "bass",
    "phrase_start": false,
    "phrase_id": 2,
    "tension": 0.5,
    "measure": 0,
    "beat": 0.0
  },
  {
    "time": 202.826,
    "note": "C2",
    "midi": 36,
    "duration": 1.138,
    "velocity": 127,
    "hand": "left",
    "role": "bass",
    "phrase_start": false,
    "phrase_id": 1,
    "tension": 0.5,
    "measure": 0,
    "beat": 0.0
  },
  {
    "time": 203.964,
    "note": "A2",
    "midi": 45,
    "duration": 0.279,
    "velocity": 127,
    "hand": "left",
    "role": "bass",
    "phrase_start": false,
    "phrase_id": 15,
    "tension": 0.5,
    "measure": 0,
    "beat": 0.0
  },
  {
    "time": 204.243,
    "note": "E2",
    "midi": 40,
    "duration": 0.691,
    "velocity": 127,
    "hand": "left",
    "role": "bass",
    "phrase_start": true,
    "phrase_id": 5,
    "tension": 0.5,
    "measure": 0,
    "beat": 0.0
  },
  {
    "time": 205.067,
    "note": "D#2",
    "midi": 39,
    "duration": 0.134,
    "velocity": 127,
    "hand": "left",
    "role": "bass",
    "phrase_start": false,
    "phrase_id": 2,
    "tension": 0.5,
    "measure": 0,
    "beat": 0.0
  },
  {
    "time": 205.201,
    "note": "E2",
    "midi": 40,
    "duration": 0.993,
    "velocity": 127,
    "hand": "left",
    "role": "bass",
    "phrase_start": false,
    "phrase_id": 5,
    "tension": 0.5,
    "measure": 0,
    "beat": 0.0
  },
  {
    "time": 206.193,
    "note": "C#2",
    "midi": 37,
    "duration": 0.139,
    "velocity": 127,
    "hand": "left",
    "role": "bass",
    "phrase_start": false,
    "phrase_id": 2,
    "tension": 0.5,
    "measure": 0,
    "beat": 0.0
  },
  {
    "time": 206.617,
    "note": "A2",
    "midi": 45,
    "duration": 0.29,
    "velocity": 127,
    "hand": "left",
    "role": "bass",
    "phrase_start": false,
    "phrase_id": 15,
    "tension": 0.5,
    "measure": 0,
    "beat": 0.0
  },
  {
    "time": 207.052,
    "note": "G2",
    "midi": 43,
    "duration": 0.139,
    "velocity": 127,
    "hand": "left",
    "role": "bass",
    "phrase_start": false,
    "phrase_id": 11,
    "tension": 0.5,
    "measure": 0,
    "beat": 0.0
  },
  {
    "time": 207.331,
    "note": "C#2",
    "midi": 37,
    "duration": 0.279,
    "velocity": 127,
    "hand": "left",
    "role": "bass",
    "phrase_start": false,
    "phrase_id": 2,
    "tension": 0.5,
    "measure": 0,
    "beat": 0.0
  },
  {
    "time": 208.167,
    "note": "A2",
    "midi": 45,
    "duration": 0.557,
    "velocity": 127,
    "hand": "left",
    "role": "bass",
    "phrase_start": false,
    "phrase_id": 15,
    "tension": 0.5,
    "measure": 0,
    "beat": 0.0
  },
  {
    "time": 208.724,
    "note": "F#2",
    "midi": 42,
    "duration": 1.974,
    "velocity": 127,
    "hand": "left",
    "role": "bass",
    "phrase_start": false,
    "phrase_id": 8,
    "tension": 0.5,
    "measure": 0,
    "beat": 0.0
  },
  {
    "time": 209.56,
    "note": "D2",
    "midi": 38,
    "duration": 0.139,
    "velocity": 127,
    "hand": "left",
    "role": "bass",
    "phrase_start": false,
    "phrase_id": 2,
    "tension": 0.5,
    "measure": 0,
    "beat": 0.0
  },
  {
    "time": 210.698,
    "note": "D2",
    "midi": 38,
    "duration": 0.418,
    "velocity": 127,
    "hand": "left",
    "role": "bass",
    "phrase_start": false,
    "phrase_id": 2,
    "tension": 0.5,
    "measure": 0,
    "beat": 0.0
  },
  {
    "time": 211.116,
    "note": "E2",
    "midi": 40,
    "duration": 1.811,
    "velocity": 127,
    "hand": "left",
    "role": "bass",
    "phrase_start": false,
    "phrase_id": 5,
    "tension": 0.5,
    "measure": 0,
    "beat": 0.0
  },
  {
    "time": 212.927,
    "note": "C2",
    "midi": 36,
    "duration": 0.279,
    "velocity": 127,
    "hand": "left",
    "role": "bass",
    "phrase_start": false,
    "phrase_id": 1,
    "tension": 0.5,
    "measure": 0,
    "beat": 0.0
  },
  {
    "time": 213.206,
    "note": "D#2",
    "midi": 39,
    "duration": 0.418,
    "velocity": 127,
    "hand": "left",
    "role": "bass",
    "phrase_start": false,
    "phrase_id": 2,
    "tension": 0.5,
    "measure": 0,
    "beat": 0.0
  },
  {
    "time": 213.624,
    "note": "F2",
    "midi": 41,
    "duration": 0.43,
    "velocity": 127,
    "hand": "left",
    "role": "bass",
    "phrase_start": false,
    "phrase_id": 7,
    "tension": 0.5,
    "measure": 0,
    "beat": 0.0
  },
  {
    "time": 214.053,
    "note": "D#2",
    "midi": 39,
    "duration": 1.126,
    "velocity": 127,
    "hand": "left",
    "role": "bass",
    "phrase_start": false,
    "phrase_id": 2,
    "tension": 0.5,
    "measure": 0,
    "beat": 0.0
  },
  {
    "time": 215.179,
    "note": "C#2",
    "midi": 37,
    "duration": 0.139,
    "velocity": 127,
    "hand": "left",
    "role": "bass",
    "phrase_start": false,
    "phrase_id": 2,
    "tension": 0.5,
    "measure": 0,
    "beat": 0.0
  },
  {
    "time": 215.458,
    "note": "A2",
    "midi": 45,
    "duration": 0.848,
    "velocity": 127,
    "hand": "left",
    "role": "bass",
    "phrase_start": false,
    "phrase_id": 15,
    "tension": 0.5,
    "measure": 0,
    "beat": 0.0
  },
  {
    "time": 216.305,
    "note": "D2",
    "midi": 38,
    "duration": 0.29,
    "velocity": 127,
    "hand": "left",
    "role": "bass",
    "phrase_start": false,
    "phrase_id": 2,
    "tension": 0.5,
    "measure": 0,
    "beat": 0.0
  },
  {
    "time": 216.596,
    "note": "A2",
    "midi": 45,
    "duration": 0.836,
    "velocity": 127,
    "hand": "left",
    "role": "bass",
    "phrase_start": false,
    "phrase_id": 15,
    "tension": 0.5,
    "measure": 0,
    "beat": 0.0
  },
  {
    "time": 217.571,
    "note": "F2",
    "midi": 41,
    "duration": 0.279,
    "velocity": 127,
    "hand": "left",
    "role": "bass",
    "phrase_start": false,
    "phrase_id": 7,
    "tension": 0.5,
    "measure": 0,
    "beat": 0.0
  },
  {
    "time": 217.85,
    "note": "F#2",
    "midi": 42,
    "duration": 0.697,
    "velocity": 127,
    "hand": "left",
    "role": "bass",
    "phrase_start": false,
    "phrase_id": 8,
    "tension": 0.5,
    "measure": 0,
    "beat": 0.0
  },
  {
    "time": 218.546,
    "note": "D2",
    "midi": 38,
    "duration": 0.139,
    "velocity": 127,
    "hand": "left",
    "role": "bass",
    "phrase_start": false,
    "phrase_id": 2,
    "tension": 0.5,
    "measure": 0,
    "beat": 0.0
  },
  {
    "time": 218.825,
    "note": "F#3",
    "midi": 54,
    "duration": 0.139,
    "velocity": 127,
    "hand": "left",
    "role": "bass",
    "phrase_start": false,
    "phrase_id": 16,
    "tension": 0.5,
    "measure": 0,
    "beat": 0.0
  },
  {
    "time": 218.964,
    "note": "F#2",
    "midi": 42,
    "duration": 0.139,
    "velocity": 127,
    "hand": "left",
    "role": "bass",
    "phrase_start": false,
    "phrase_id": 8,
    "tension": 0.5,
    "measure": 0,
    "beat": 0.0
  },
  {
    "time": 219.103,
    "note": "F#3",
    "midi": 54,
    "duration": 0.139,
    "velocity": 127,
    "hand": "left",
    "role": "bass",
    "phrase_start": false,
    "phrase_id": 16,
    "tension": 0.5,
    "measure": 0,
    "beat": 0.0
  },
  {
    "time": 219.243,
    "note": "F#2",
    "midi": 42,
    "duration": 0.418,
    "velocity": 127,
    "hand": "left",
    "role": "bass",
    "phrase_start": false,
    "phrase_id": 8,
    "tension": 0.5,
    "measure": 0,
    "beat": 0.0
  },
  {
    "time": 219.661,
    "note": "D2",
    "midi": 38,
    "duration": 0.418,
    "velocity": 127,
    "hand": "left",
    "role": "bass",
    "phrase_start": false,
    "phrase_id": 2,
    "tension": 0.5,
    "measure": 0,
    "beat": 0.0
  },
  {
    "time": 220.079,
    "note": "E2",
    "midi": 40,
    "duration": 0.418,
    "velocity": 127,
    "hand": "left",
    "role": "bass",
    "phrase_start": false,
    "phrase_id": 5,
    "tension": 0.5,
    "measure": 0,
    "beat": 0.0
  },
  {
    "time": 220.497,
    "note": "B4",
    "midi": 71,
    "duration": 0.29,
    "velocity": 127,
    "hand": "left",
    "role": "bass",
    "phrase_start": false,
    "phrase_id": 19,
    "tension": 0.5,
    "measure": 0,
    "beat": 0.0
  },
  {
    "time": 220.787,
    "note": "D#2",
    "midi": 39,
    "duration": 0.145,
    "velocity": 127,
    "hand": "left",
    "role": "bass",
    "phrase_start": false,
    "phrase_id": 2,
    "tension": 0.5,
    "measure": 0,
    "beat": 0.0
  },
  {
    "time": 220.932,
    "note": "E2",
    "midi": 40,
    "duration": 1.26,
    "velocity": 127,
    "hand": "left",
    "role": "bass",
    "phrase_start": false,
    "phrase_id": 5,
    "tension": 0.5,
    "measure": 0,
    "beat": 0.0
  },
  {
    "time": 222.192,
    "note": "C#2",
    "midi": 37,
    "duration": 0.139,
    "velocity": 127,
    "hand": "left",
    "role": "bass",
    "phrase_start": false,
    "phrase_id": 2,
    "tension": 0.5,
    "measure": 0,
    "beat": 0.0
  },
  {
    "time": 222.331,
    "note": "F#2",
    "midi": 42,
    "duration": 0.697,
    "velocity": 127,
    "hand": "left",
    "role": "bass",
    "phrase_start": true,
    "phrase_id": 9,
    "tension": 0.5,
    "measure": 0,
    "beat": 0.0
  },
  {
    "time": 223.028,
    "note": "D2",
    "midi": 38,
    "duration": 0.139,
    "velocity": 127,
    "hand": "left",
    "role": "bass",
    "phrase_start": false,
    "phrase_id": 2,
    "tension": 0.5,
    "measure": 0,
    "beat": 0.0
  },
  {
    "time": 223.167,
    "note": "F#2",
    "midi": 42,
    "duration": 0.418,
    "velocity": 127,
    "hand": "left",
    "role": "bass",
    "phrase_start": false,
    "phrase_id": 9,
    "tension": 0.5,
    "measure": 0,
    "beat": 0.0
  },
  {
    "time": 223.864,
    "note": "F#2",
    "midi": 42,
    "duration": 0.29,
    "velocity": 127,
    "hand": "left",
    "role": "bass",
    "phrase_start": false,
    "phrase_id": 9,
    "tension": 0.5,
    "measure": 0,
    "beat": 0.0
  },
  {
    "time": 224.154,
    "note": "D2",
    "midi": 38,
    "duration": 0.145,
    "velocity": 127,
    "hand": "left",
    "role": "bass",
    "phrase_start": false,
    "phrase_id": 2,
    "tension": 0.5,
    "measure": 0,
    "beat": 0.0
  },
  {
    "time": 224.444,
    "note": "C#2",
    "midi": 37,
    "duration": 0.139,
    "velocity": 127,
    "hand": "left",
    "role": "bass",
    "phrase_start": false,
    "phrase_id": 2,
    "tension": 0.5,
    "measure": 0,
    "beat": 0.0
  },
  {
    "time": 224.583,
    "note": "G2",
    "midi": 43,
    "duration": 0.557,
    "velocity": 127,
    "hand": "left",
    "role": "bass",
    "phrase_start": false,
    "phrase_id": 11,
    "tension": 0.5,
    "measure": 0,
    "beat": 0.0
  },
  {
    "time": 225.28,
    "note": "C#2",
    "midi": 37,
    "duration": 0.279,
    "velocity": 127,
    "hand": "left",
    "role": "bass",
    "phrase_start": false,
    "phrase_id": 2,
    "tension": 0.5,
    "measure": 0,
    "beat": 0.0
  },
  {
    "time": 225.837,
    "note": "G#2",
    "midi": 44,
    "duration": 0.557,
    "velocity": 127,
    "hand": "left",
    "role": "bass",
    "phrase_start": false,
    "phrase_id": 11,
    "tension": 0.5,
    "measure": 0,
    "beat": 0.0
  },
  {
    "time": 226.673,
    "note": "A2",
    "midi": 45,
    "duration": 0.557,
    "velocity": 127,
    "hand": "right",
    "role": "harmony",
    "phrase_start": false,
    "phrase_id": 15,
    "tension": 0.5,
    "measure": 0,
    "beat": 0.0
  },
  {
    "time": 226.673,
    "note": "D2",
    "midi": 38,
    "duration": 0.139,
    "velocity": 127,
    "hand": "left",
    "role": "bass",
    "phrase_start": false,
    "phrase_id": 2,
    "tension": 0.5,
    "measure": 0,
    "beat": 0.0
  },
  {
    "time": 227.23,
    "note": "F3",
    "midi": 53,
    "duration": 0.267,
    "velocity": 127,
    "hand": "left",
    "role": "bass",
    "phrase_start": false,
    "phrase_id": 15,
    "tension": 0.5,
    "measure": 0,
    "beat": 0.0
  },
  {
    "time": 227.498,
    "note": "D2",
    "midi": 38,
    "duration": 0.267,
    "velocity": 127,
    "hand": "left",
    "role": "bass",
    "phrase_start": false,
    "phrase_id": 2,
    "tension": 0.5,
    "measure": 0,
    "beat": 0.0
  },
  {
    "time": 227.765,
    "note": "E3",
    "midi": 52,
    "duration": 0.29,
    "velocity": 127,
    "hand": "left",
    "role": "bass",
    "phrase_start": false,
    "phrase_id": 15,
    "tension": 0.5,
    "measure": 0,
    "beat": 0.0
  },
  {
    "time": 228.2,
    "note": "F#4",
    "midi": 66,
    "duration": 0.145,
    "velocity": 127,
    "hand": "left",
    "role": "bass",
    "phrase_start": false,
    "phrase_id": 19,
    "tension": 0.5,
    "measure": 0,
    "beat": 0.0
  },
  {
    "time": 228.345,
    "note": "A2",
    "midi": 45,
    "duration": 0.145,
    "velocity": 127,
    "hand": "left",
    "role": "bass",
    "phrase_start": false,
    "phrase_id": 15,
    "tension": 0.5,
    "measure": 0,
    "beat": 0.0
  },
  {
    "time": 228.635,
    "note": "D2",
    "midi": 38,
    "duration": 0.43,
    "velocity": 127,
    "hand": "left",
    "role": "bass",
    "phrase_start": false,
    "phrase_id": 2,
    "tension": 0.5,
    "measure": 0,
    "beat": 0.0
  },
  {
    "time": 229.065,
    "note": "E2",
    "midi": 40,
    "duration": 0.697,
    "velocity": 127,
    "hand": "left",
    "role": "bass",
    "phrase_start": false,
    "phrase_id": 5,
    "tension": 0.5,
    "measure": 0,
    "beat": 0.0
  },
  {
    "time": 229.761,
    "note": "D2",
    "midi": 38,
    "duration": 0.139,
    "velocity": 127,
    "hand": "left",
    "role": "bass",
    "phrase_start": false,
    "phrase_id": 2,
    "tension": 0.5,
    "measure": 0,
    "beat": 0.0
  },
  {
    "time": 229.901,
    "note": "E2",
    "midi": 40,
    "duration": 0.418,
    "velocity": 127,
    "hand": "left",
    "role": "bass",
    "phrase_start": false,
    "phrase_id": 5,
    "tension": 0.5,
    "measure": 0,
    "beat": 0.0
  },
  {
    "time": 230.319,
    "note": "A3",
    "midi": 57,
    "duration": 0.279,
    "velocity": 127,
    "hand": "left",
    "role": "bass",
    "phrase_start": false,
    "phrase_id": 18,
    "tension": 0.5,
    "measure": 0,
    "beat": 0.0
  },
  {
    "time": 230.597,
    "note": "E2",
    "midi": 40,
    "duration": 0.279,
    "velocity": 127,
    "hand": "left",
    "role": "bass",
    "phrase_start": false,
    "phrase_id": 5,
    "tension": 0.5,
    "measure": 0,
    "beat": 0.0
  },
  {
    "time": 230.876,
    "note": "F#2",
    "midi": 42,
    "duration": 0.279,
    "velocity": 127,
    "hand": "left",
    "role": "bass",
    "phrase_start": true,
    "phrase_id": 10,
    "tension": 0.5,
    "measure": 0,
    "beat": 0.0
  },
  {
    "time": 231.155,
    "note": "C#2",
    "midi": 37,
    "duration": 0.139,
    "velocity": 127,
    "hand": "left",
    "role": "bass",
    "phrase_start": false,
    "phrase_id": 2,
    "tension": 0.5,
    "measure": 0,
    "beat": 0.0
  },
  {
    "time": 231.294,
    "note": "G#2",
    "midi": 44,
    "duration": 0.139,
    "velocity": 127,
    "hand": "left",
    "role": "bass",
    "phrase_start": false,
    "phrase_id": 11,
    "tension": 0.5,
    "measure": 0,
    "beat": 0.0
  },
  {
    "time": 231.573,
    "note": "F#3",
    "midi": 54,
    "duration": 0.139,
    "velocity": 127,
    "hand": "left",
    "role": "bass",
    "phrase_start": false,
    "phrase_id": 16,
    "tension": 0.5,
    "measure": 0,
    "beat": 0.0
  },
  {
    "time": 232.292,
    "note": "D#3",
    "midi": 51,
    "duration": 0.139,
    "velocity": 127,
    "hand": "left",
    "role": "bass",
    "phrase_start": false,
    "phrase_id": 15,
    "tension": 0.5,
    "measure": 0,
    "beat": 0.0
  },
  {
    "time": 232.432,
    "note": "F3",
    "midi": 53,
    "duration": 0.279,
    "velocity": 127,
    "hand": "left",
    "role": "bass",
    "phrase_start": false,
    "phrase_id": 15,
    "tension": 0.5,
    "measure": 0,
    "beat": 0.0
  },
  {
    "time": 233.128,
    "note": "C#2",
    "midi": 37,
    "duration": 0.139,
    "velocity": 127,
    "hand": "left",
    "role": "bass",
    "phrase_start": false,
    "phrase_id": 2,
    "tension": 0.5,
    "measure": 0,
    "beat": 0.0
  },
  {
    "time": 233.407,
    "note": "D#2",
    "midi": 39,
    "duration": 0.139,
    "velocity": 127,
    "hand": "left",
    "role": "bass",
    "phrase_start": false,
    "phrase_id": 2,
    "tension": 0.5,
    "measure": 0,
    "beat": 0.0
  },
  {
    "time": 233.546,
    "note": "C#2",
    "midi": 37,
    "duration": 0.418,
    "velocity": 127,
    "hand": "left",
    "role": "bass",
    "phrase_start": false,
    "phrase_id": 2,
    "tension": 0.5,
    "measure": 0,
    "beat": 0.0
  },
  {
    "time": 233.964,
    "note": "F3",
    "midi": 53,
    "duration": 0.279,
    "velocity": 127,
    "hand": "left",
    "role": "bass",
    "phrase_start": false,
    "phrase_id": 15,
    "tension": 0.5,
    "measure": 0,
    "beat": 0.0
  },
  {
    "time": 234.243,
    "note": "D2",
    "midi": 38,
    "duration": 1.115,
    "velocity": 127,
    "hand": "left",
    "role": "bass",
    "phrase_start": false,
    "phrase_id": 2,
    "tension": 0.5,
    "measure": 0,
    "beat": 0.0
  },
  {
    "time": 235.357,
    "note": "D#5",
    "midi": 75,
    "duration": 0.139,
    "velocity": 127,
    "hand": "left",
    "role": "bass",
    "phrase_start": false,
    "phrase_id": 19,
    "tension": 0.5,
    "measure": 0,
    "beat": 0.0
  },
  {
    "time": 235.497,
    "note": "G#2",
    "midi": 44,
    "duration": 0.279,
    "velocity": 127,
    "hand": "left",
    "role": "bass",
    "phrase_start": false,
    "phrase_id": 11,
    "tension": 0.5,
    "measure": 0,
    "beat": 0.0
  },
  {
    "time": 235.775,
    "note": "A2",
    "midi": 45,
    "duration": 0.418,
    "velocity": 127,
    "hand": "left",
    "role": "bass",
    "phrase_start": false,
    "phrase_id": 15,
    "tension": 0.5,
    "measure": 0,
    "beat": 0.0
  },
  {
    "time": 236.193,
    "note": "F3",
    "midi": 53,
    "duration": 0.29,
    "velocity": 127,
    "hand": "left",
    "role": "bass",
    "phrase_start": false,
    "phrase_id": 15,
    "tension": 0.5,
    "measure": 0,
    "beat": 0.0
  },
  {
    "time": 236.484,
    "note": "D#2",
    "midi": 39,
    "duration": 0.145,
    "velocity": 127,
    "hand": "left",
    "role": "bass",
    "phrase_start": false,
    "phrase_id": 2,
    "tension": 0.5,
    "measure": 0,
    "beat": 0.0
  },
  {
    "time": 236.629,
    "note": "A2",
    "midi": 45,
    "duration": 0.145,
    "velocity": 127,
    "hand": "left",
    "role": "bass",
    "phrase_start": false,
    "phrase_id": 15,
    "tension": 0.5,
    "measure": 0,
    "beat": 0.0
  },
  {
    "time": 236.913,
    "note": "F3",
    "midi": 53,
    "duration": 0.139,
    "velocity": 127,
    "hand": "left",
    "role": "bass",
    "phrase_start": false,
    "phrase_id": 15,
    "tension": 0.5,
    "measure": 0,
    "beat": 0.0
  },
  {
    "time": 237.192,
    "note": "D#5",
    "midi": 75,
    "duration": 0.139,
    "velocity": 127,
    "hand": "left",
    "role": "bass",
    "phrase_start": false,
    "phrase_id": 19,
    "tension": 0.5,
    "measure": 0,
    "beat": 0.0
  },
  {
    "time": 237.61,
    "note": "C#2",
    "midi": 37,
    "duration": 0.279,
    "velocity": 127,
    "hand": "left",
    "role": "bass",
    "phrase_start": false,
    "phrase_id": 2,
    "tension": 0.5,
    "measure": 0,
    "beat": 0.0
  },
  {
    "time": 237.888,
    "note": "D#2",
    "midi": 39,
    "duration": 0.139,
    "velocity": 127,
    "hand": "left",
    "role": "bass",
    "phrase_start": false,
    "phrase_id": 2,
    "tension": 0.5,
    "measure": 0,
    "beat": 0.0
  },
  {
    "time": 238.028,
    "note": "E2",
    "midi": 40,
    "duration": 0.418,
    "velocity": 127,
    "hand": "left",
    "role": "bass",
    "phrase_start": true,
    "phrase_id": 6,
    "tension": 0.5,
    "measure": 0,
    "beat": 0.0
  },
  {
    "time": 238.736,
    "note": "D#2",
    "midi": 39,
    "duration": 0.145,
    "velocity": 127,
    "hand": "left",
    "role": "bass",
    "phrase_start": false,
    "phrase_id": 2,
    "tension": 0.5,
    "measure": 0,
    "beat": 0.0
  },
  {
    "time": 238.881,
    "note": "E2",
    "midi": 40,
    "duration": 1.236,
    "velocity": 127,
    "hand": "left",
    "role": "bass",
    "phrase_start": false,
    "phrase_id": 6,
    "tension": 0.5,
    "measure": 0,
    "beat": 0.0
  },
  {
    "time": 240.118,
    "note": "D#2",
    "midi": 39,
    "duration": 0.145,
    "velocity": 127,
    "hand": "left",
    "role": "bass",
    "phrase_start": false,
    "phrase_id": 2,
    "tension": 0.5,
    "measure": 0,
    "beat": 0.0
  },
  {
    "time": 240.263,
    "note": "F#2",
    "midi": 42,
    "duration": 0.435,
    "velocity": 127,
    "hand": "left",
    "role": "bass",
    "phrase_start": false,
    "phrase_id": 10,
    "tension": 0.5,
    "measure": 0,
    "beat": 0.0
  },
  {
    "time": 241.116,
    "note": "F#2",
    "midi": 42,
    "duration": 0.975,
    "velocity": 127,
    "hand": "left",
    "role": "bass",
    "phrase_start": false,
    "phrase_id": 10,
    "tension": 0.5,
    "measure": 0,
    "beat": 0.0
  },
  {
    "time": 242.091,
    "note": "D2",
    "midi": 38,
    "duration": 0.279,
    "velocity": 127,
    "hand": "left",
    "role": "bass",
    "phrase_start": false,
    "phrase_id": 2,
    "tension": 0.5,
    "measure": 0,
    "beat": 0.0
  },
  {
    "time": 242.37,
    "note": "C2",
    "midi": 36,
    "duration": 0.139,
    "velocity": 127,
    "hand": "left",
    "role": "bass",
    "phrase_start": false,
    "phrase_id": 1,
    "tension": 0.5,
    "measure": 0,
    "beat": 0.0
  },
  {
    "time": 242.649,
    "note": "C2",
    "midi": 36,
    "duration": 0.418,
    "velocity": 127,
    "hand": "left",
    "role": "bass",
    "phrase_start": false,
    "phrase_id": 1,
    "tension": 0.5,
    "measure": 0,
    "beat": 0.0
  },
  {
    "time": 243.206,
    "note": "D2",
    "midi": 38,
    "duration": 0.139,
    "velocity": 127,
    "hand": "left",
    "role": "bass",
    "phrase_start": false,
    "phrase_id": 2,
    "tension": 0.5,
    "measure": 0,
    "beat": 0.0
  },
  {
    "time": 243.345,
    "note": "A2",
    "midi": 45,
    "duration": 0.859,
    "velocity": 127,
    "hand": "left",
    "role": "bass",
    "phrase_start": false,
    "phrase_id": 15,
    "tension": 0.5,
    "measure": 0,
    "beat": 0.0
  },
  {
    "time": 244.344,
    "note": "F#3",
    "midi": 54,
    "duration": 0.145,
    "velocity": 127,
    "hand": "right",
    "role": "harmony",
    "phrase_start": false,
    "phrase_id": 16,
    "tension": 0.5,
    "measure": 0,
    "beat": 0.0
  },
  {
    "time": 244.344,
    "note": "E3",
    "midi": 52,
    "duration": 0.279,
    "velocity": 127,
    "hand": "left",
    "role": "bass",
    "phrase_start": false,
    "phrase_id": 15,
    "tension": 0.5,
    "measure": 0,
    "beat": 0.0
  },
  {
    "time": 244.622,
    "note": "D#3",
    "midi": 51,
    "duration": 0.139,
    "velocity": 127,
    "hand": "left",
    "role": "bass",
    "phrase_start": false,
    "phrase_id": 15,
    "tension": 0.5,
    "measure": 0,
    "beat": 0.0
  },
  {
    "time": 244.762,
    "note": "F3",
    "midi": 53,
    "duration": 0.708,
    "velocity": 127,
    "hand": "left",
    "role": "bass",
    "phrase_start": false,
    "phrase_id": 15,
    "tension": 0.5,
    "measure": 0,
    "beat": 0.0
  },
  {
    "time": 245.47,
    "note": "G3",
    "midi": 55,
    "duration": 0.871,
    "velocity": 127,
    "hand": "left",
    "role": "bass",
    "phrase_start": false,
    "phrase_id": 16,
    "tension": 0.5,
    "measure": 0,
    "beat": 0.0
  },
  {
    "time": 246.34,
    "note": "F3",
    "midi": 53,
    "duration": 0.267,
    "velocity": 127,
    "hand": "left",
    "role": "bass",
    "phrase_start": false,
    "phrase_id": 15,
    "tension": 0.5,
    "measure": 0,
    "beat": 0.0
  },
  {
    "time": 247.031,
    "note": "G#3",
    "midi": 56,
    "duration": 0.157,
    "velocity": 127,
    "hand": "left",
    "role": "bass",
    "phrase_start": false,
    "phrase_id": 17,
    "tension": 0.5,
    "measure": 0,
    "beat": 0.0
  },
  {
    "time": 247.792,
    "note": "B3",
    "midi": 59,
    "duration": 0.145,
    "velocity": 127,
    "hand": "left",
    "role": "bass",
    "phrase_start": false,
    "phrase_id": 18,
    "tension": 0.5,
    "measure": 0,
    "beat": 0.0
  },
  {
    "time": 248.082,
    "note": "G#3",
    "midi": 56,
    "duration": 0.302,
    "velocity": 127,
    "hand": "left",
    "role": "bass",
    "phrase_start": false,
    "phrase_id": 17,
    "tension": 0.5,
    "measure": 0,
    "beat": 0.0
  },
  {
    "time": 248.686,
    "note": "G#3",
    "midi": 56,
    "duration": 0.134,
    "velocity": 127,
    "hand": "left",
    "role": "bass",
    "phrase_start": false,
    "phrase_id": 17,
    "tension": 0.5,
    "measure": 0,
    "beat": 0.0
  },
  {
    "time": 248.819,
    "note": "F#3",
    "midi": 54,
    "duration": 0.134,
    "velocity": 127,
    "hand": "left",
    "role": "bass",
    "phrase_start": false,
    "phrase_id": 16,
    "tension": 0.5,
    "measure": 0,
    "beat": 0.0
  },
  {
    "time": 248.953,
    "note": "E3",
    "midi": 52,
    "duration": 0.401,
    "velocity": 127,
    "hand": "left",
    "role": "bass",
    "phrase_start": false,
    "phrase_id": 15,
    "tension": 0.5,
    "measure": 0,
    "beat": 0.0
  },
  {
    "time": 249.487,
    "note": "F3",
    "midi": 53,
    "duration": 1.045,
    "velocity": 127,
    "hand": "left",
    "role": "bass",
    "phrase_start": false,
    "phrase_id": 15,
    "tension": 0.5,
    "measure": 0,
    "beat": 0.0
  },
  {
    "time": 250.532,
    "note": "G3",
    "midi": 55,
    "duration": 0.134,
    "velocity": 127,
    "hand": "left",
    "role": "bass",
    "phrase_start": false,
    "phrase_id": 16,
    "tension": 0.5,
    "measure": 0,
    "beat": 0.0
  },
  {
    "time": 251.333,
    "note": "F#3",
    "midi": 54,
    "duration": 0.134,
    "velocity": 127,
    "hand": "left",
    "role": "bass",
    "phrase_start": false,
    "phrase_id": 16,
    "tension": 0.5,
    "measure": 0,
    "beat": 0.0
  },
  {
    "time": 251.466,
    "note": "E2",
    "midi": 40,
    "duration": 1.202,
    "velocity": 127,
    "hand": "left",
    "role": "bass",
    "phrase_start": false,
    "phrase_id": 6,
    "tension": 0.5,
    "measure": 0,
    "beat": 0.0
  },
  {
    "time": 252.668,
    "note": "E3",
    "midi": 52,
    "duration": 0.401,
    "velocity": 127,
    "hand": "left",
    "role": "bass",
    "phrase_start": false,
    "phrase_id": 15,
    "tension": 0.5,
    "measure": 0,
    "beat": 0.0
  },
  {
    "time": 253.068,
    "note": "E2",
    "midi": 40,
    "duration": 0.134,
    "velocity": 127,
    "hand": "left",
    "role": "bass",
    "phrase_start": false,
    "phrase_id": 6,
    "tension": 0.5,
    "measure": 0,
    "beat": 0.0
  }
]